<svg width="454" height="139" viewBox="0 0 454 139" fill="none" xmlns="http://www.w3.org/2000/svg">
<g filter="url(#filter0_d_165_33)">
<path d="M15.074 0.899994V57.476L56.418 0.899994L57.442 1.796L34.53 33.028L68.578 90.5H56.674L28.002 41.988L15.074 59.78V90.5H4.45001V0.899994H15.074ZM105.321 91.012C96.361 91.012 89.065 88.452 83.433 83.332C77.801 78.212 74.985 70.3187 74.985 59.652C74.985 48.9853 77.8863 40.708 83.689 34.82C89.577 28.932 97.001 25.988 105.961 25.988C115.006 25.988 122.345 28.548 127.977 33.668C133.609 38.788 136.425 46.6813 136.425 57.348C136.425 68.0147 133.481 76.292 127.593 82.18C121.79 88.068 114.366 91.012 105.321 91.012ZM106.217 27.012C99.7317 27.012 94.3557 29.9133 90.089 35.716C85.8223 41.4333 83.689 49.4547 83.689 59.78C83.689 70.02 85.6517 77.6147 89.577 82.564C93.5023 87.5133 98.7077 89.988 105.193 89.988C111.678 89.988 117.054 87.1293 121.321 81.412C125.588 75.6093 127.721 67.588 127.721 57.348C127.721 47.0227 125.758 39.3853 121.833 34.436C117.908 29.4867 112.702 27.012 106.217 27.012ZM168.558 32.004V29.316C164.718 30.852 161.219 33.9667 158.062 38.66C154.905 43.268 153.241 47.62 153.07 51.716V90.5H144.11V26.5H153.07V46.852C154.435 41.9027 157.038 37.252 160.878 32.9C164.718 28.4627 169.07 26.1587 173.934 25.988H174.446C176.153 25.988 177.561 26.5853 178.67 27.78C179.865 28.8893 180.462 30.2973 180.462 32.004C180.462 33.7107 179.865 35.1187 178.67 36.228C177.561 37.3373 176.153 37.892 174.446 37.892C172.739 37.892 171.331 37.3373 170.222 36.228C169.113 35.1187 168.558 33.7107 168.558 32.004ZM189.47 27.524V26.5H192.158V13.7H201.118V26.5H220.702V27.524H201.118V74.116C201.118 79.6627 201.715 83.6733 202.91 86.148C204.19 88.6227 206.793 89.86 210.718 89.86C214.729 89.86 218.782 89.0493 222.878 87.428L223.262 88.452C218.995 90.0733 214.089 90.884 208.542 90.884C203.081 90.884 198.985 89.7747 196.254 87.556C193.523 85.252 192.158 80.7293 192.158 73.988V27.524H189.47ZM237.689 59.268C237.689 69.8493 239.524 77.6147 243.193 82.564C246.948 87.5133 251.854 89.988 257.913 89.988C266.446 89.988 274.041 88.708 280.697 86.148L281.081 87.044C274.254 89.6893 266.532 91.012 257.913 91.012C249.38 91.012 242.425 88.452 237.049 83.332C231.673 78.212 228.985 70.3187 228.985 59.652C228.985 48.9853 231.801 40.708 237.433 34.82C243.065 28.932 250.233 25.988 258.937 25.988C265.934 25.988 271.822 28.0787 276.601 32.26C281.38 36.4413 283.769 42.628 283.769 50.82C283.769 51.2467 283.769 51.6733 283.769 52.1H238.073C237.817 54.404 237.689 56.7933 237.689 59.268ZM275.065 51.076C274.98 42.884 273.401 36.8253 270.329 32.9C267.257 28.9747 263.289 27.012 258.425 27.012C253.561 27.012 249.209 29.1453 245.369 33.412C241.614 37.6787 239.225 43.5667 238.201 51.076H275.065Z" fill="#DADADA" fill-opacity="0.8" shape-rendering="crispEdges"/>
<path d="M283.516 129.796C281.98 130.479 280.231 130.82 278.268 130.82C277.159 130.82 276.177 130.692 275.324 130.436C274.471 130.18 274.044 129.753 274.044 129.156C274.044 128.559 274.599 127.833 275.708 126.98C276.732 126.212 278.567 125.273 281.212 124.164C282.577 123.396 284.54 121.988 287.1 119.94C289.575 117.977 292.348 115.631 295.42 112.9C298.492 110.169 301.607 107.353 304.764 104.452C308.007 101.551 310.951 98.8627 313.596 96.388C316.327 93.9133 318.588 91.8653 320.38 90.244C322.172 88.6227 323.196 87.7693 323.452 87.684C325.159 85.892 326.951 84.1 328.828 82.308C330.705 80.6013 332.625 78.724 334.588 76.676C336.551 74.5427 338.513 72.6653 340.476 71.044C340.817 70.7027 341.543 69.9773 342.652 68.868C343.847 67.6733 344.999 66.564 346.108 65.54C347.217 64.4307 347.9 63.8333 348.156 63.748C348.497 63.236 349.095 62.6387 349.948 61.956C350.887 61.188 351.655 60.5907 352.252 60.164L358.14 54.532C359.079 53.764 359.975 53.0387 360.828 52.356C361.767 51.588 362.663 50.8627 363.516 50.18C363.431 48.8147 363.345 47.62 363.26 46.596C363.175 45.4867 363.132 44.8893 363.132 44.804L364.54 33.668C364.711 33.0707 364.668 32.0467 364.412 30.596C364.241 29.06 364.156 27.396 364.156 25.604C364.156 24.1533 364.284 22.7027 364.54 21.252C364.796 19.8013 365.308 18.5213 366.076 17.412C365.052 17.2413 364.071 17.156 363.132 17.156C362.449 17.156 362.065 17.2413 361.98 17.412C361.639 17.2413 361.297 17.156 360.956 17.156C360.7 17.156 360.444 17.1133 360.188 17.028C359.761 17.3693 358.908 17.54 357.628 17.54C356.689 17.54 355.623 17.4973 354.428 17.412C353.319 17.2413 352.337 17.156 351.484 17.156C350.545 17.156 349.948 17.284 349.692 17.54C345.937 17.796 341.671 18.7347 336.892 20.356C332.199 21.892 327.505 24.068 322.812 26.884C318.204 29.6147 314.023 32.9853 310.268 36.996C306.513 40.9213 303.697 45.4013 301.82 50.436C301.393 51.6307 300.924 53.2093 300.412 55.172C299.9 57.0493 299.729 59.7373 299.9 63.236C299.9 63.3213 299.815 63.4067 299.644 63.492C299.473 63.492 299.303 63.0653 299.132 62.212C298.876 61.2733 298.748 59.524 298.748 56.964C298.663 56.8787 298.62 56.7507 298.62 56.58C298.62 56.2387 298.705 55.8973 298.876 55.556C298.961 55.2147 298.833 55.0013 298.492 54.916L296.572 56.708C296.401 56.2813 296.444 55.5987 296.7 54.66C296.956 53.7213 297.297 52.74 297.724 51.716C298.065 50.6067 298.407 49.796 298.748 49.284C301.479 44.5907 304.977 39.9827 309.244 35.46C313.511 30.852 317.777 27.0973 322.044 24.196C323.324 23.3427 324.604 22.6173 325.884 22.02C327.164 21.3373 328.444 20.6547 329.724 19.972L334.844 17.412C335.697 17.156 337.105 16.6867 339.068 16.004C341.031 15.236 342.951 14.5533 344.828 13.956C346.791 13.2733 348.156 13.1027 348.924 13.444L352.764 12.804C353.447 12.2067 355.153 11.78 357.884 11.524C360.7 11.268 363.388 11.14 365.948 11.14C367.228 11.14 368.38 11.1827 369.404 11.268C370.428 11.268 371.111 11.3533 371.452 11.524V11.396C371.623 11.3107 371.879 11.268 372.22 11.268C372.647 11.268 373.116 11.4387 373.628 11.78C374.14 11.524 374.609 11.4813 375.036 11.652C375.377 11.652 375.676 11.7373 375.932 11.908C376.188 11.9933 376.444 12.0787 376.7 12.164H377.084C377.511 12.164 377.895 12.292 378.236 12.548C378.577 12.7187 378.876 12.8893 379.132 13.06C379.388 12.8893 379.687 12.804 380.028 12.804C380.284 12.804 380.625 13.0173 381.052 13.444C381.479 13.188 381.692 13.1453 381.692 13.316C381.521 14.6813 381.052 15.876 380.284 16.9L379.9 17.796C379.644 18.2227 379.26 19.0333 378.748 20.228C378.321 21.4227 377.809 22.5747 377.212 23.684C376.7 24.708 376.145 25.3907 375.548 25.732C375.548 25.732 375.548 25.988 375.548 26.5C375.548 26.9267 375.377 27.9507 375.036 29.572C374.78 31.108 374.268 33.5827 373.5 36.996C373.159 37.0813 372.903 37.5933 372.732 38.532C372.561 39.4707 372.433 40.5373 372.348 41.732C373.543 40.5373 374.993 39.3 376.7 38.02C377.127 37.764 377.767 37.2947 378.62 36.612C379.473 35.844 380.327 35.1187 381.18 34.436C382.033 33.7533 382.673 33.3693 383.1 33.284L386.812 30.98L390.78 28.548C391.719 28.036 392.657 27.524 393.596 27.012C394.535 26.4147 395.516 25.86 396.54 25.348C397.308 24.9213 398.417 24.2813 399.868 23.428C401.404 22.5747 402.684 22.0627 403.708 21.892C404.135 21.5507 405.159 21.0387 406.78 20.356C408.401 19.6733 409.511 19.204 410.108 18.948L415.1 17.028C415.612 16.772 416.423 16.4307 417.532 16.004C418.641 15.492 419.409 15.108 419.836 14.852L424.06 13.956L424.7 13.828C425.127 13.4867 425.852 13.2307 426.876 13.06C427.9 12.8893 428.924 12.7613 429.948 12.676C431.057 12.5053 431.868 12.42 432.38 12.42L434.044 12.164C434.471 11.9933 434.855 11.9507 435.196 12.036C435.623 12.036 436.007 11.9933 436.348 11.908C437.543 11.7373 438.609 11.8227 439.548 12.164C440.487 12.5053 441.511 12.7187 442.62 12.804C443.047 12.8893 443.644 13.06 444.412 13.316C445.18 13.4867 445.777 13.6147 446.204 13.7C446.631 13.956 447.228 14.2973 447.996 14.724C448.849 15.1507 449.319 15.5773 449.404 16.004C449.404 16.6013 449.276 16.9 449.02 16.9C448.935 16.9 448.764 16.8147 448.508 16.644C448.337 16.388 448.167 16.1747 447.996 16.004C447.399 15.8333 446.801 15.5773 446.204 15.236C445.607 14.8947 444.924 14.6813 444.156 14.596C443.985 14.596 443.772 14.596 443.516 14.596C443.26 14.5107 443.047 14.468 442.876 14.468C441.169 14.468 439.335 14.7667 437.372 15.364C435.495 15.9613 433.617 16.4733 431.74 16.9C431.143 17.0707 430.545 17.1987 429.948 17.284C429.436 17.3693 428.881 17.4973 428.284 17.668C428.284 17.668 427.815 17.924 426.876 18.436C425.937 18.948 425.212 19.2893 424.7 19.46C424.188 19.46 424.06 19.2467 424.316 18.82C424.657 18.308 424.572 18.1373 424.06 18.308C423.889 18.4787 423.42 18.7773 422.652 19.204C421.969 19.6307 421.287 20.0147 420.604 20.356C420.007 20.6973 419.708 20.9533 419.708 21.124C419.623 21.124 419.495 21.1667 419.324 21.252C419.153 21.252 419.025 21.2093 418.94 21.124C417.916 21.7213 417.063 22.1053 416.38 22.276C415.783 22.4467 415.143 22.6173 414.46 22.788C413.863 22.9587 413.009 23.3427 411.9 23.94C411.047 24.2813 409.895 24.7507 408.444 25.348C406.993 25.9453 405.756 26.4147 404.732 26.756C403.879 27.6947 402.471 28.548 400.508 29.316C398.631 30.084 397.052 30.852 395.772 31.62C391.932 34.0093 388.22 36.4413 384.636 38.916C381.137 41.3907 376.999 44.548 372.22 48.388C372.22 49.412 372.22 50.436 372.22 51.46C372.305 52.3987 372.305 53.4653 372.22 54.66C372.476 54.916 372.604 55.172 372.604 55.428C372.604 55.684 372.476 55.9827 372.22 56.324C372.049 56.6653 371.964 57.0067 371.964 57.348L372.86 58.756C372.945 58.9267 373.073 59.652 373.244 60.932C373.415 62.1267 373.585 63.5347 373.756 65.156C374.012 66.7773 374.225 68.3987 374.396 70.02C374.652 71.556 374.908 72.708 375.164 73.476C376.017 74.0733 376.572 74.7133 376.828 75.396C377.084 76.0787 377.212 76.804 377.212 77.572C377.212 78.1693 377.169 78.7667 377.084 79.364C376.999 79.876 376.956 80.388 376.956 80.9C376.956 81.4973 377.041 82.0947 377.212 82.692C377.383 83.2893 377.724 83.844 378.236 84.356C378.577 84.6973 379.089 85.508 379.772 86.788C380.54 88.068 381.479 89.2627 382.588 90.372C383.783 91.4813 385.191 92.0787 386.812 92.164C388.007 92.164 389.287 91.524 390.652 90.244C392.103 88.8787 393.383 87.428 394.492 85.892C395.687 84.356 396.455 83.332 396.796 82.82L397.82 81.284C397.991 81.4547 398.033 81.54 397.948 81.54C397.863 81.796 397.692 82.5213 397.436 83.716C397.18 84.8253 397.137 85.4227 397.308 85.508C397.223 85.5933 397.052 85.7213 396.796 85.892C396.54 85.9773 396.455 86.0627 396.54 86.148L395.388 88.58C394.62 89.2627 393.383 90.2013 391.676 91.396C390.055 92.676 388.305 93.7427 386.428 94.596C384.551 95.5347 382.972 95.876 381.692 95.62C381.095 95.4493 380.753 95.236 380.668 94.98C380.668 94.8093 380.327 94.596 379.644 94.34C379.388 94.2547 379.047 94.212 378.62 94.212C378.108 94.212 377.639 94.2547 377.212 94.34C376.785 94.4253 376.359 94.468 375.932 94.468C375.676 94.468 375.42 94.4253 375.164 94.34C374.908 94.34 374.652 94.2547 374.396 94.084C373.287 93.4013 372.476 92.4627 371.964 91.268C371.537 90.0733 370.983 89.0493 370.3 88.196C369.617 87.172 369.02 85.6787 368.508 83.716C368.081 81.7533 367.697 79.7907 367.356 77.828C367.1 75.8653 366.801 74.3293 366.46 73.22C365.607 70.2333 364.881 67.5027 364.284 65.028C363.687 62.468 363.516 59.6093 363.772 56.452V54.788C360.103 57.6893 356.476 60.7187 352.892 63.876C349.308 67.0333 345.724 70.3613 342.14 73.86L331.772 83.844C331.431 84.1853 330.961 84.5267 330.364 84.868C329.852 85.124 329.468 85.4653 329.212 85.892L328.572 86.916C324.732 90.756 320.807 94.98 316.796 99.588C312.785 104.281 308.903 108.591 305.148 112.516C303.356 114.308 301.223 116.441 298.748 118.916C296.273 121.391 293.713 123.652 291.068 125.7C288.423 127.748 285.905 129.113 283.516 129.796Z" fill="#71EBBA" fill-opacity="0.58" shape-rendering="crispEdges"/>
</g>
<defs>
<filter id="filter0_d_165_33" x="0.450195" y="0.900391" width="452.954" height="137.92" filterUnits="userSpaceOnUse" color-interpolation-filters="sRGB">
<feFlood flood-opacity="0" result="BackgroundImageFix"/>
<feColorMatrix in="SourceAlpha" type="matrix" values="0 0 0 0 0 0 0 0 0 0 0 0 0 0 0 0 0 0 127 0" result="hardAlpha"/>
<feOffset dy="4"/>
<feGaussianBlur stdDeviation="2"/>
<feComposite in2="hardAlpha" operator="out"/>
<feColorMatrix type="matrix" values="0 0 0 0 0 0 0 0 0 0 0 0 0 0 0 0 0 0 0.25 0"/>
<feBlend mode="normal" in2="BackgroundImageFix" result="effect1_dropShadow_165_33"/>
<feBlend mode="normal" in="SourceGraphic" in2="effect1_dropShadow_165_33" result="shape"/>
</filter>
</defs>
</svg>
