<svg width="1163" height="1511" viewBox="0 0 1163 1511" fill="none" xmlns="http://www.w3.org/2000/svg">
<path d="M-179.177 -350H-275V-225.972M-179.177 -350V-225.972M-179.177 -350H-83.3533M-275 -225.972H-179.177M-275 -225.972V-101.946M-179.177 -225.972H-83.3533M-179.177 -225.972V-101.946M-83.3533 -350V-225.972M-83.3533 -350H12.47M-83.3533 -225.972H12.47M-83.3533 -225.972V-101.946M-179.177 -101.946H-275M-179.177 -101.946H-83.3533M-179.177 -101.946V22.0814M-275 -101.946V22.0814M12.47 -350V-225.972M12.47 -350H108.293M12.47 -225.972H108.293M12.47 -225.972V-101.946M-83.3533 -101.946H12.47M-83.3533 -101.946V22.0814M108.293 -350V-225.972M108.293 -350H204.117M108.293 -225.972H204.117M108.293 -225.972V-101.946M12.47 -101.946H108.293M12.47 -101.946V22.0814M204.117 -350V-225.972M204.117 -350H299.94M204.117 -225.972H299.94M204.117 -225.972V-101.946M108.293 -101.946H204.117M108.293 -101.946V22.0814M299.94 -350V-225.972M299.94 -350H395.763M299.94 -225.972H395.763M299.94 -225.972V-101.946M204.117 -101.946H299.94M204.117 -101.946V22.0814M395.763 -350V-225.972M395.763 -350H491.587M395.763 -225.972H491.587M395.763 -225.972V-101.946M299.94 -101.946H395.763M299.94 -101.946V22.0814M491.587 -350V-225.972M491.587 -350H587.41M491.587 -225.972H587.41M491.587 -225.972V-101.946M395.763 -101.946H491.587M395.763 -101.946V22.0814M587.41 -350V-225.972M587.41 -350H683.233M587.41 -225.972H683.233M587.41 -225.972V-101.946M491.587 -101.946H587.41M491.587 -101.946V22.0814M683.233 -350V-225.972M683.233 -350H779.057M683.233 -225.972H779.057M683.233 -225.972V-101.946M587.41 -101.946H683.233M587.41 -101.946V22.0814M779.057 -350V-225.972M779.057 -350H874.88M779.057 -225.972H874.88M779.057 -225.972V-101.946M683.233 -101.946H779.057M683.233 -101.946V22.0814M874.88 -350V-225.972M874.88 -350H970.703M874.88 -225.972H970.703M874.88 -225.972V-101.946M779.057 -101.946H874.88M779.057 -101.946V22.0814M970.703 -350V-225.972M970.703 -350H1066.53M970.703 -225.972H1066.53M970.703 -225.972V-101.946M874.88 -101.946H970.703M874.88 -101.946V22.0814M1066.53 -350V-225.972M1066.53 -350H1162.35V-225.972M1066.53 -225.972H1162.35M1066.53 -225.972V-101.946M970.703 -101.946H1066.53M970.703 -101.946V22.0814M1162.35 -225.972V-101.946M1066.53 -101.946H1162.35M1066.53 -101.946V22.0814M1162.35 -101.946V22.0814M-179.177 22.0814H-275M-179.177 22.0814H-83.3533M-179.177 22.0814V146.107M-275 22.0814V146.107M-83.3533 22.0814H12.47M-83.3533 22.0814V146.107M12.47 22.0814H108.293M12.47 22.0814V146.107M108.293 22.0814H204.117M108.293 22.0814V146.107M204.117 22.0814H299.94M204.117 22.0814V146.107M299.94 22.0814H395.763M299.94 22.0814V146.107M395.763 22.0814H491.587M395.763 22.0814V146.107M491.587 22.0814H587.41M491.587 22.0814V146.107M587.41 22.0814H683.233M587.41 22.0814V146.107M683.233 22.0814H779.057M683.233 22.0814V146.107M779.057 22.0814H874.88M779.057 22.0814V146.107M874.88 22.0814H970.703M874.88 22.0814V146.107M970.703 22.0814H1066.53M970.703 22.0814V146.107M1066.53 22.0814H1162.35M1066.53 22.0814V146.107M1162.35 22.0814V146.107M-179.177 146.107H-275M-179.177 146.107H-83.3533M-179.177 146.107V270.135M-275 146.107V270.135M-83.3533 146.107H12.47M-83.3533 146.107V270.135M12.47 146.107H108.293M12.47 146.107V270.135M108.293 146.107H204.117M108.293 146.107V270.135M204.117 146.107H299.94M204.117 146.107V270.135M299.94 146.107H395.763M299.94 146.107V270.135M395.763 146.107H491.587M395.763 146.107V270.135M491.587 146.107H587.41M491.587 146.107V270.135M587.41 146.107H683.233M587.41 146.107V270.135M683.233 146.107H779.057M683.233 146.107V270.135M779.057 146.107H874.88M779.057 146.107V270.135M874.88 146.107H970.703M874.88 146.107V270.135M970.703 146.107H1066.53M970.703 146.107V270.135M1066.53 146.107H1162.35M1066.53 146.107V270.135M1162.35 146.107V270.135M-179.177 270.135H-275M-179.177 270.135H-83.3533M-179.177 270.135V394.163M-275 270.135V394.163M-83.3533 270.135H12.47M-83.3533 270.135V394.163M12.47 270.135H108.293M12.47 270.135V394.163M108.293 270.135H204.117M108.293 270.135V394.163M204.117 270.135H299.94M204.117 270.135V394.163M299.94 270.135H395.763M299.94 270.135V394.163M395.763 270.135H491.587M395.763 270.135V394.163M491.587 270.135H587.41M491.587 270.135V394.163M587.41 270.135H683.233M587.41 270.135V394.163M683.233 270.135H779.057M683.233 270.135V394.163M779.057 270.135H874.88M779.057 270.135V394.163M874.88 270.135H970.703M874.88 270.135V394.163M970.703 270.135H1066.53M970.703 270.135V394.163M1066.53 270.135H1162.35M1066.53 270.135V394.163M1162.35 270.135V394.163M-179.177 394.163H-275M-179.177 394.163H-83.3533M-179.177 394.163V518.189M-275 394.163V518.189M-83.3533 394.163H12.47M-83.3533 394.163V518.189M12.47 394.163H108.293M12.47 394.163V518.189M108.293 394.163H204.117M108.293 394.163V518.189M204.117 394.163H299.94M204.117 394.163V518.189M299.94 394.163H395.763M299.94 394.163V518.189M395.763 394.163H491.587M395.763 394.163V518.189M491.587 394.163H587.41M491.587 394.163V518.189M587.41 394.163H683.233M587.41 394.163V518.189M683.233 394.163H779.057M683.233 394.163V518.189M779.057 394.163H874.88M779.057 394.163V518.189M874.88 394.163H970.703M874.88 394.163V518.189M970.703 394.163H1066.53M970.703 394.163V518.189M1066.53 394.163H1162.35M1066.53 394.163V518.189M1162.35 394.163V518.189M-179.177 518.189H-275M-179.177 518.189H-83.3533M-179.177 518.189V642.216M-275 518.189V642.216M-83.3533 518.189H12.47M-83.3533 518.189V642.216M12.47 518.189H108.293M12.47 518.189V642.216M108.293 518.189H204.117M108.293 518.189V642.216M204.117 518.189H299.94M204.117 518.189V642.216M299.94 518.189H395.763M299.94 518.189V642.216M395.763 518.189H491.587M395.763 518.189V642.216M491.587 518.189H587.41M491.587 518.189V642.216M587.41 518.189H683.233M587.41 518.189V642.216M683.233 518.189H779.057M683.233 518.189V642.216M779.057 518.189H874.88M779.057 518.189V642.216M874.88 518.189H970.703M874.88 518.189V642.216M970.703 518.189H1066.53M970.703 518.189V642.216M1066.53 518.189H1162.35M1066.53 518.189V642.216M1162.35 518.189V642.216M-179.177 642.216H-275M-179.177 642.216H-83.3533M-179.177 642.216V766.242M-275 642.216V766.242M-83.3533 642.216H12.47M-83.3533 642.216V766.242M12.47 642.216H108.293M12.47 642.216V766.242M108.293 642.216H204.117M108.293 642.216V766.242M204.117 642.216H299.94M204.117 642.216V766.242M299.94 642.216H395.763M299.94 642.216V766.242M395.763 642.216H491.587M395.763 642.216V766.242M491.587 642.216H587.41M491.587 642.216V766.242M587.41 642.216H683.233M587.41 642.216V766.242M683.233 642.216H779.057M683.233 642.216V766.242M779.057 642.216H874.88M779.057 642.216V766.242M874.88 642.216H970.703M874.88 642.216V766.242M970.703 642.216H1066.53M970.703 642.216V766.242M1066.53 642.216H1162.35M1066.53 642.216V766.242M1162.35 642.216V766.242M-179.177 766.242H-275M-179.177 766.242H-83.3533M-179.177 766.242V890.27M-275 766.242V890.27M-83.3533 766.242H12.47M-83.3533 766.242V890.27M12.47 766.242H108.293M12.47 766.242V890.27M108.293 766.242H204.117M108.293 766.242V890.27M204.117 766.242H299.94M204.117 766.242V890.27M299.94 766.242H395.763M299.94 766.242V890.27M395.763 766.242H491.587M395.763 766.242V890.27M491.587 766.242H587.41M491.587 766.242V890.27M587.41 766.242H683.233M587.41 766.242V890.27M683.233 766.242H779.057M683.233 766.242V890.27M779.057 766.242H874.88M779.057 766.242V890.27M874.88 766.242H970.703M874.88 766.242V890.27M970.703 766.242H1066.53M970.703 766.242V890.27M1066.53 766.242H1162.35M1066.53 766.242V890.27M1162.35 766.242V890.27M-179.177 890.27H-275M-179.177 890.27H-83.3533M-179.177 890.27V1014.3M-275 890.27V1014.3M-83.3533 890.27H12.47M-83.3533 890.27V1014.3M12.47 890.27H108.293M12.47 890.27V1014.3M108.293 890.27H204.117M108.293 890.27V1014.3M204.117 890.27H299.94M204.117 890.27V1014.3M299.94 890.27H395.763M299.94 890.27V1014.3M395.763 890.27H491.587M395.763 890.27V1014.3M491.587 890.27H587.41M491.587 890.27V1014.3M587.41 890.27H683.233M587.41 890.27V1014.3M683.233 890.27H779.057M683.233 890.27V1014.3M779.057 890.27H874.88M779.057 890.27V1014.3M874.88 890.27H970.703M874.88 890.27V1014.3M970.703 890.27H1066.53M970.703 890.27V1014.3M1066.53 890.27H1162.35M1066.53 890.27V1014.3M1162.35 890.27V1014.3M-179.177 1014.3H-275M-179.177 1014.3H-83.3533M-179.177 1014.3V1138.32M-275 1014.3V1138.32M-83.3533 1014.3H12.47M-83.3533 1014.3V1138.32M12.47 1014.3H108.293M12.47 1014.3V1138.32M108.293 1014.3H204.117M108.293 1014.3V1138.32M204.117 1014.3H299.94M204.117 1014.3V1138.32M299.94 1014.3H395.763M299.94 1014.3V1138.32M395.763 1014.3H491.587M395.763 1014.3V1138.32M491.587 1014.3H587.41M491.587 1014.3V1138.32M587.41 1014.3H683.233M587.41 1014.3V1138.32M683.233 1014.3H779.057M683.233 1014.3V1138.32M779.057 1014.3H874.88M779.057 1014.3V1138.32M874.88 1014.3H970.703M874.88 1014.3V1138.32M970.703 1014.3H1066.53M970.703 1014.3V1138.32M1066.53 1014.3H1162.35M1066.53 1014.3V1138.32M1162.35 1014.3V1138.32M-179.177 1138.32H-275M-179.177 1138.32H-83.3533M-179.177 1138.32V1262.35M-275 1138.32V1262.35M-83.3533 1138.32H12.47M-83.3533 1138.32V1262.35M12.47 1138.32H108.293M12.47 1138.32V1262.35M108.293 1138.32H204.117M108.293 1138.32V1262.35M204.117 1138.32H299.94M204.117 1138.32V1262.35M299.94 1138.32H395.763M299.94 1138.32V1262.35M395.763 1138.32H491.587M395.763 1138.32V1262.35M491.587 1138.32H587.41M491.587 1138.32V1262.35M587.41 1138.32H683.233M587.41 1138.32V1262.35M683.233 1138.32H779.057M683.233 1138.32V1262.35M779.057 1138.32H874.88M779.057 1138.32V1262.35M874.88 1138.32H970.703M874.88 1138.32V1262.35M970.703 1138.32H1066.53M970.703 1138.32V1262.35M1066.53 1138.32H1162.35M1066.53 1138.32V1262.35M1162.35 1138.32V1262.35M-179.177 1262.35H-275M-179.177 1262.35H-83.3533M-179.177 1262.35V1386.38M-275 1262.35V1386.38M-83.3533 1262.35H12.47M-83.3533 1262.35V1386.38M12.47 1262.35H108.293M12.47 1262.35V1386.38M108.293 1262.35H204.117M108.293 1262.35V1386.38M204.117 1262.35H299.94M204.117 1262.35V1386.38M299.94 1262.35H395.763M299.94 1262.35V1386.38M395.763 1262.35H491.587M395.763 1262.35V1386.38M491.587 1262.35H587.41M491.587 1262.35V1386.38M587.41 1262.35H683.233M587.41 1262.35V1386.38M683.233 1262.35H779.057M683.233 1262.35V1386.38M779.057 1262.35H874.88M779.057 1262.35V1386.38M874.88 1262.35H970.703M874.88 1262.35V1386.38M970.703 1262.35H1066.53M970.703 1262.35V1386.38M1066.53 1262.35H1162.35M1066.53 1262.35V1386.38M1162.35 1262.35V1386.38M-179.177 1386.38H-275M-179.177 1386.38H-83.3533M-179.177 1386.38V1510.41M-275 1386.38V1510.41H-179.177M-83.3533 1386.38H12.47M-83.3533 1386.38V1510.41M12.47 1386.38H108.293M12.47 1386.38V1510.41M108.293 1386.38H204.117M108.293 1386.38V1510.41M204.117 1386.38H299.94M204.117 1386.38V1510.41M299.94 1386.38H395.763M299.94 1386.38V1510.41M395.763 1386.38H491.587M395.763 1386.38V1510.41M491.587 1386.38H587.41M491.587 1386.38V1510.41M587.41 1386.38H683.233M587.41 1386.38V1510.41M683.233 1386.38H779.057M683.233 1386.38V1510.41M779.057 1386.38H874.88M779.057 1386.38V1510.41M874.88 1386.38H970.703M874.88 1386.38V1510.41M970.703 1386.38H1066.53M970.703 1386.38V1510.41M1066.53 1386.38H1162.35M1066.53 1386.38V1510.41M1162.35 1386.38V1510.41H1066.53M-179.177 1510.41H-83.3533M-83.3533 1510.41H12.47M12.47 1510.41H108.293M108.293 1510.41H204.117M204.117 1510.41H299.94M299.94 1510.41H395.763M395.763 1510.41H491.587M491.587 1510.41H587.41M587.41 1510.41H683.233M683.233 1510.41H779.057M779.057 1510.41H874.88M874.88 1510.41H970.703M970.703 1510.41H1066.53" stroke="url(#paint0_radial_165_319)" stroke-opacity="0.2"/>
<defs>
<radialGradient id="paint0_radial_165_319" cx="0" cy="0" r="1" gradientUnits="userSpaceOnUse" gradientTransform="translate(444.477 580.979) rotate(90) scale(658.738 508.942)">
<stop stop-color="white"/>
<stop offset="1" stop-color="white" stop-opacity="0"/>
</radialGradient>
</defs>
</svg>
