<svg width="1728" height="2064" viewBox="0 0 1728 2064" fill="none" xmlns="http://www.w3.org/2000/svg">
<path d="M898.93 -78.9219H663.797V111.721H898.93V-78.9219Z" fill="url(#paint0_radial_1306_615)" fill-opacity="0.06"/>
<path d="M-511.867 -1985.33H-747V-1715.47M-511.867 -1985.33V-1715.47M-511.867 -1985.33H-276.733M-747 -1715.47H-511.867M-747 -1715.47V-1445.61M-511.867 -1715.47H-276.733M-511.867 -1715.47V-1445.61M-276.733 -1985.33V-1715.47M-276.733 -1985.33H-41.6M-276.733 -1715.47H-41.6M-276.733 -1715.47V-1445.61M-511.867 -1445.61H-747M-511.867 -1445.61H-276.733M-511.867 -1445.61V-1175.75M-747 -1445.61V-1175.75M-41.6 -1985.33V-1715.47M-41.6 -1985.33H193.533M-41.6 -1715.47H193.533M-41.6 -1715.47V-1445.61M-276.733 -1445.61H-41.6M-276.733 -1445.61V-1175.75M193.533 -1985.33V-1715.47M193.533 -1985.33H428.667M193.533 -1715.47H428.667M193.533 -1715.47V-1445.61M-41.6 -1445.61H193.533M-41.6 -1445.61V-1175.75M428.667 -1985.33V-1715.47M428.667 -1985.33H663.8M428.667 -1715.47H663.8M428.667 -1715.47V-1445.61M193.533 -1445.61H428.667M193.533 -1445.61V-1175.75M663.8 -1985.33V-1715.47M663.8 -1985.33H898.933M663.8 -1715.47H898.933M663.8 -1715.47V-1445.61M428.667 -1445.61H663.8M428.667 -1445.61V-1175.75M898.933 -1985.33V-1715.47M898.933 -1985.33H1134.07M898.933 -1715.47H1134.07M898.933 -1715.47V-1445.61M663.8 -1445.61H898.933M663.8 -1445.61V-1175.75M1134.07 -1985.33V-1715.47M1134.07 -1985.33H1369.2M1134.07 -1715.47H1369.2M1134.07 -1715.47V-1445.61M898.933 -1445.61H1134.07M898.933 -1445.61V-1175.75M1369.2 -1985.33V-1715.47M1369.2 -1985.33H1604.33M1369.2 -1715.47H1604.33M1369.2 -1715.47V-1445.61M1134.07 -1445.61H1369.2M1134.07 -1445.61V-1175.75M1604.33 -1985.33V-1715.47M1604.33 -1985.33H1839.47M1604.33 -1715.47H1839.47M1604.33 -1715.47V-1445.61M1369.2 -1445.61H1604.33M1369.2 -1445.61V-1175.75M1839.47 -1985.33V-1715.47M1839.47 -1985.33H2074.6M1839.47 -1715.47H2074.6M1839.47 -1715.47V-1445.61M1604.33 -1445.61H1839.47M1604.33 -1445.61V-1175.75M2074.6 -1985.33V-1715.47M2074.6 -1985.33H2309.73M2074.6 -1715.47H2309.73M2074.6 -1715.47V-1445.61M1839.47 -1445.61H2074.6M1839.47 -1445.61V-1175.75M2309.73 -1985.33V-1715.47M2309.73 -1985.33H2544.87M2309.73 -1715.47H2544.87M2309.73 -1715.47V-1445.61M2074.6 -1445.61H2309.73M2074.6 -1445.61V-1175.75M2544.87 -1985.33V-1715.47M2544.87 -1985.33H2780V-1715.47M2544.87 -1715.47H2780M2544.87 -1715.47V-1445.61M2309.73 -1445.61H2544.87M2309.73 -1445.61V-1175.75M2780 -1715.47V-1445.61M2544.87 -1445.61H2780M2544.87 -1445.61V-1175.75M2780 -1445.61V-1175.75M-511.867 -1175.75H-747M-511.867 -1175.75H-276.733M-511.867 -1175.75V-905.894M-747 -1175.75V-905.894M-276.733 -1175.75H-41.6M-276.733 -1175.75V-905.894M-41.6 -1175.75H193.533M-41.6 -1175.75V-905.894M193.533 -1175.75H428.667M193.533 -1175.75V-905.894M428.667 -1175.75H663.8M428.667 -1175.75V-905.894M663.8 -1175.75H898.933M663.8 -1175.75V-905.894M898.933 -1175.75H1134.07M898.933 -1175.75V-905.894M1134.07 -1175.75H1369.2M1134.07 -1175.75V-905.894M1369.2 -1175.75H1604.33M1369.2 -1175.75V-905.894M1604.33 -1175.75H1839.47M1604.33 -1175.75V-905.894M1839.47 -1175.75H2074.6M1839.47 -1175.75V-905.894M2074.6 -1175.75H2309.73M2074.6 -1175.75V-905.894M2309.73 -1175.75H2544.87M2309.73 -1175.75V-905.894M2544.87 -1175.75H2780M2544.87 -1175.75V-905.894M2780 -1175.75V-905.894M-511.867 -905.894H-747M-511.867 -905.894H-276.733M-511.867 -905.894V-636.032M-747 -905.894V-636.032M-276.733 -905.894H-41.6M-276.733 -905.894V-636.032M-41.6 -905.894H193.533M-41.6 -905.894V-636.032M193.533 -905.894H428.667M193.533 -905.894V-636.032M428.667 -905.894H663.8M428.667 -905.894V-636.032M663.8 -905.894H898.933M663.8 -905.894V-636.032M898.933 -905.894H1134.07M898.933 -905.894V-636.032M1134.07 -905.894H1369.2M1134.07 -905.894V-636.032M1369.2 -905.894H1604.33M1369.2 -905.894V-636.032M1604.33 -905.894H1839.47M1604.33 -905.894V-636.032M1839.47 -905.894H2074.6M1839.47 -905.894V-636.032M2074.6 -905.894H2309.73M2074.6 -905.894V-636.032M2309.73 -905.894H2544.87M2309.73 -905.894V-636.032M2544.87 -905.894H2780M2544.87 -905.894V-636.032M2780 -905.894V-636.032M-511.867 -636.032H-747M-511.867 -636.032H-276.733M-511.867 -636.032V-366.171M-747 -636.032V-366.171M-276.733 -636.032H-41.6M-276.733 -636.032V-366.171M-41.6 -636.032H193.533M-41.6 -636.032V-366.171M193.533 -636.032H428.667M193.533 -636.032V-366.171M428.667 -636.032H663.8M428.667 -636.032V-366.171M663.8 -636.032H898.933M663.8 -636.032V-366.171M898.933 -636.032H1134.07M898.933 -636.032V-366.171M1134.07 -636.032H1369.2M1134.07 -636.032V-366.171M1369.2 -636.032H1604.33M1369.2 -636.032V-366.171M1604.33 -636.032H1839.47M1604.33 -636.032V-366.171M1839.47 -636.032H2074.6M1839.47 -636.032V-366.171M2074.6 -636.032H2309.73M2074.6 -636.032V-366.171M2309.73 -636.032H2544.87M2309.73 -636.032V-366.171M2544.87 -636.032H2780M2544.87 -636.032V-366.171M2780 -636.032V-366.171M-511.867 -366.171H-747M-511.867 -366.171H-276.733M-511.867 -366.171V-96.3135M-747 -366.171V-96.3135M-276.733 -366.171H-41.6M-276.733 -366.171V-96.3135M-41.6 -366.171H193.533M-41.6 -366.171V-96.3135M193.533 -366.171H428.667M193.533 -366.171V-96.3135M428.667 -366.171H663.8M428.667 -366.171V-96.3135M663.8 -366.171H898.933M663.8 -366.171V-96.3135M898.933 -366.171H1134.07M898.933 -366.171V-96.3135M1134.07 -366.171H1369.2M1134.07 -366.171V-96.3135M1369.2 -366.171H1604.33M1369.2 -366.171V-96.3135M1604.33 -366.171H1839.47M1604.33 -366.171V-96.3135M1839.47 -366.171H2074.6M1839.47 -366.171V-96.3135M2074.6 -366.171H2309.73M2074.6 -366.171V-96.3135M2309.73 -366.171H2544.87M2309.73 -366.171V-96.3135M2544.87 -366.171H2780M2544.87 -366.171V-96.3135M2780 -366.171V-96.3135M-511.867 -96.3135H-747M-511.867 -96.3135H-276.733M-511.867 -96.3135V173.548M-747 -96.3135V173.548M-276.733 -96.3135H-41.6M-276.733 -96.3135V173.548M-41.6 -96.3135H193.533M-41.6 -96.3135V173.548M193.533 -96.3135H428.667M193.533 -96.3135V173.548M428.667 -96.3135H663.8M428.667 -96.3135V173.548M663.8 -96.3135H898.933M663.8 -96.3135V173.548M898.933 -96.3135H1134.07M898.933 -96.3135V173.548M1134.07 -96.3135H1369.2M1134.07 -96.3135V173.548M1369.2 -96.3135H1604.33M1369.2 -96.3135V173.548M1604.33 -96.3135H1839.47M1604.33 -96.3135V173.548M1839.47 -96.3135H2074.6M1839.47 -96.3135V173.548M2074.6 -96.3135H2309.73M2074.6 -96.3135V173.548M2309.73 -96.3135H2544.87M2309.73 -96.3135V173.548M2544.87 -96.3135H2780M2544.87 -96.3135V173.548M2780 -96.3135V173.548M-511.867 173.548H-747M-511.867 173.548H-276.733M-511.867 173.548V443.406M-747 173.548V443.406M-276.733 173.548H-41.6M-276.733 173.548V443.406M-41.6 173.548H193.533M-41.6 173.548V443.406M193.533 173.548H428.667M193.533 173.548V443.406M428.667 173.548H663.8M428.667 173.548V443.406M663.8 173.548H898.933M663.8 173.548V443.406M898.933 173.548H1134.07M898.933 173.548V443.406M1134.07 173.548H1369.2M1134.07 173.548V443.406M1369.2 173.548H1604.33M1369.2 173.548V443.406M1604.33 173.548H1839.47M1604.33 173.548V443.406M1839.47 173.548H2074.6M1839.47 173.548V443.406M2074.6 173.548H2309.73M2074.6 173.548V443.406M2309.73 173.548H2544.87M2309.73 173.548V443.406M2544.87 173.548H2780M2544.87 173.548V443.406M2780 173.548V443.406M-511.867 443.406H-747M-511.867 443.406H-276.733M-511.867 443.406V713.267M-747 443.406V713.267M-276.733 443.406H-41.6M-276.733 443.406V713.267M-41.6 443.406H193.533M-41.6 443.406V713.267M193.533 443.406H428.667M193.533 443.406V713.267M428.667 443.406H663.8M428.667 443.406V713.267M663.8 443.406H898.933M663.8 443.406V713.267M898.933 443.406H1134.07M898.933 443.406V713.267M1134.07 443.406H1369.2M1134.07 443.406V713.267M1369.2 443.406H1604.33M1369.2 443.406V713.267M1604.33 443.406H1839.47M1604.33 443.406V713.267M1839.47 443.406H2074.6M1839.47 443.406V713.267M2074.6 443.406H2309.73M2074.6 443.406V713.267M2309.73 443.406H2544.87M2309.73 443.406V713.267M2544.87 443.406H2780M2544.87 443.406V713.267M2780 443.406V713.267M-511.867 713.267H-747M-511.867 713.267H-276.733M-511.867 713.267V983.128M-747 713.267V983.128M-276.733 713.267H-41.6M-276.733 713.267V983.128M-41.6 713.267H193.533M-41.6 713.267V983.128M193.533 713.267H428.667M193.533 713.267V983.128M428.667 713.267H663.8M428.667 713.267V983.128M663.8 713.267H898.933M663.8 713.267V983.128M898.933 713.267H1134.07M898.933 713.267V983.128M1134.07 713.267H1369.2M1134.07 713.267V983.128M1369.2 713.267H1604.33M1369.2 713.267V983.128M1604.33 713.267H1839.47M1604.33 713.267V983.128M1839.47 713.267H2074.6M1839.47 713.267V983.128M2074.6 713.267H2309.73M2074.6 713.267V983.128M2309.73 713.267H2544.87M2309.73 713.267V983.128M2544.87 713.267H2780M2544.87 713.267V983.128M2780 713.267V983.128M-511.867 983.128H-747M-511.867 983.128H-276.733M-511.867 983.128V1252.99M-747 983.128V1252.99M-276.733 983.128H-41.6M-276.733 983.128V1252.99M-41.6 983.128H193.533M-41.6 983.128V1252.99M193.533 983.128H428.667M193.533 983.128V1252.99M428.667 983.128H663.8M428.667 983.128V1252.99M663.8 983.128H898.933M663.8 983.128V1252.99M898.933 983.128H1134.07M898.933 983.128V1252.99M1134.07 983.128H1369.2M1134.07 983.128V1252.99M1369.2 983.128H1604.33M1369.2 983.128V1252.99M1604.33 983.128H1839.47M1604.33 983.128V1252.99M1839.47 983.128H2074.6M1839.47 983.128V1252.99M2074.6 983.128H2309.73M2074.6 983.128V1252.99M2309.73 983.128H2544.87M2309.73 983.128V1252.99M2544.87 983.128H2780M2544.87 983.128V1252.99M2780 983.128V1252.99M-511.867 1252.99H-747M-511.867 1252.99H-276.733M-511.867 1252.99V1522.85M-747 1252.99V1522.85M-276.733 1252.99H-41.6M-276.733 1252.99V1522.85M-41.6 1252.99H193.533M-41.6 1252.99V1522.85M193.533 1252.99H428.667M193.533 1252.99V1522.85M428.667 1252.99H663.8M428.667 1252.99V1522.85M663.8 1252.99H898.933M663.8 1252.99V1522.85M898.933 1252.99H1134.07M898.933 1252.99V1522.85M1134.07 1252.99H1369.2M1134.07 1252.99V1522.85M1369.2 1252.99H1604.33M1369.2 1252.99V1522.85M1604.33 1252.99H1839.47M1604.33 1252.99V1522.85M1839.47 1252.99H2074.6M1839.47 1252.99V1522.85M2074.6 1252.99H2309.73M2074.6 1252.99V1522.85M2309.73 1252.99H2544.87M2309.73 1252.99V1522.85M2544.87 1252.99H2780M2544.87 1252.99V1522.85M2780 1252.99V1522.85M-511.867 1522.85H-747M-511.867 1522.85H-276.733M-511.867 1522.85V1792.71M-747 1522.85V1792.71M-276.733 1522.85H-41.6M-276.733 1522.85V1792.71M-41.6 1522.85H193.533M-41.6 1522.85V1792.71M193.533 1522.85H428.667M193.533 1522.85V1792.71M428.667 1522.85H663.8M428.667 1522.85V1792.71M663.8 1522.85H898.933M663.8 1522.85V1792.71M898.933 1522.85H1134.07M898.933 1522.85V1792.71M1134.07 1522.85H1369.2M1134.07 1522.85V1792.71M1369.2 1522.85H1604.33M1369.2 1522.85V1792.71M1604.33 1522.85H1839.47M1604.33 1522.85V1792.71M1839.47 1522.85H2074.6M1839.47 1522.85V1792.71M2074.6 1522.85H2309.73M2074.6 1522.85V1792.71M2309.73 1522.85H2544.87M2309.73 1522.85V1792.71M2544.87 1522.85H2780M2544.87 1522.85V1792.71M2780 1522.85V1792.71M-511.867 1792.71H-747M-511.867 1792.71H-276.733M-511.867 1792.71V2062.57M-747 1792.71V2062.57H-511.867M-276.733 1792.71H-41.6M-276.733 1792.71V2062.57M-41.6 1792.71H193.533M-41.6 1792.71V2062.57M193.533 1792.71H428.667M193.533 1792.71V2062.57M428.667 1792.71H663.8M428.667 1792.71V2062.57M663.8 1792.71H898.933M663.8 1792.71V2062.57M898.933 1792.71H1134.07M898.933 1792.71V2062.57M1134.07 1792.71H1369.2M1134.07 1792.71V2062.57M1369.2 1792.71H1604.33M1369.2 1792.71V2062.57M1604.33 1792.71H1839.47M1604.33 1792.71V2062.57M1839.47 1792.71H2074.6M1839.47 1792.71V2062.57M2074.6 1792.71H2309.73M2074.6 1792.71V2062.57M2309.73 1792.71H2544.87M2309.73 1792.71V2062.57M2544.87 1792.71H2780M2544.87 1792.71V2062.57M2780 1792.71V2062.57H2544.87M-511.867 2062.57H-276.733M-276.733 2062.57H-41.6M-41.6 2062.57H193.533M193.533 2062.57H428.667M428.667 2062.57H663.8M663.8 2062.57H898.933M898.933 2062.57H1134.07M1134.07 2062.57H1369.2M1369.2 2062.57H1604.33M1604.33 2062.57H1839.47M1839.47 2062.57H2074.6M2074.6 2062.57H2309.73M2309.73 2062.57H2544.87" stroke="url(#paint1_radial_1306_615)" stroke-opacity="0.2"/>
<g filter="url(#filter0_f_1306_615)">
<ellipse cx="154.5" cy="-112.5" rx="413.5" ry="294.5" fill="black"/>
</g>
<g filter="url(#filter1_f_1306_615)">
<ellipse cx="2141.5" cy="-214.5" rx="413.5" ry="294.5" fill="black"/>
</g>
<g filter="url(#filter2_f_1306_615)">
<ellipse cx="847.5" cy="-168.5" rx="427.5" ry="294.5" fill="black"/>
</g>
<g filter="url(#filter3_f_1306_615)">
<ellipse cx="1510.5" cy="-250.5" rx="427.5" ry="294.5" fill="black"/>
</g>
<defs>
<filter id="filter0_f_1306_615" x="-859" y="-1007" width="2027" height="1789" filterUnits="userSpaceOnUse" color-interpolation-filters="sRGB">
<feFlood flood-opacity="0" result="BackgroundImageFix"/>
<feBlend mode="normal" in="SourceGraphic" in2="BackgroundImageFix" result="shape"/>
<feGaussianBlur stdDeviation="300" result="effect1_foregroundBlur_1306_615"/>
</filter>
<filter id="filter1_f_1306_615" x="1028" y="-1209" width="2227" height="1989" filterUnits="userSpaceOnUse" color-interpolation-filters="sRGB">
<feFlood flood-opacity="0" result="BackgroundImageFix"/>
<feBlend mode="normal" in="SourceGraphic" in2="BackgroundImageFix" result="shape"/>
<feGaussianBlur stdDeviation="350" result="effect1_foregroundBlur_1306_615"/>
</filter>
<filter id="filter2_f_1306_615" x="-580" y="-1463" width="2855" height="2589" filterUnits="userSpaceOnUse" color-interpolation-filters="sRGB">
<feFlood flood-opacity="0" result="BackgroundImageFix"/>
<feBlend mode="normal" in="SourceGraphic" in2="BackgroundImageFix" result="shape"/>
<feGaussianBlur stdDeviation="500" result="effect1_foregroundBlur_1306_615"/>
</filter>
<filter id="filter3_f_1306_615" x="83" y="-1545" width="2855" height="2589" filterUnits="userSpaceOnUse" color-interpolation-filters="sRGB">
<feFlood flood-opacity="0" result="BackgroundImageFix"/>
<feBlend mode="normal" in="SourceGraphic" in2="BackgroundImageFix" result="shape"/>
<feGaussianBlur stdDeviation="500" result="effect1_foregroundBlur_1306_615"/>
</filter>
<radialGradient id="paint0_radial_1306_615" cx="0" cy="0" r="1" gradientUnits="userSpaceOnUse" gradientTransform="translate(781.653 108.154) rotate(92.5531) scale(138.591 309.833)">
<stop stop-color="white" stop-opacity="0.8"/>
<stop offset="1" stop-color="#05041F"/>
</radialGradient>
<radialGradient id="paint1_radial_1306_615" cx="0" cy="0" r="1" gradientUnits="userSpaceOnUse" gradientTransform="translate(1018.47 40.306) rotate(90) scale(1433.29 1248.85)">
<stop stop-color="white"/>
<stop offset="1" stop-color="white" stop-opacity="0"/>
</radialGradient>
</defs>
</svg>
