<svg width="41" height="40" viewBox="0 0 41 40" fill="none" xmlns="http://www.w3.org/2000/svg">
<g filter="url(#filter0_i_165_384)">
<g clip-path="url(#clip0_165_384)">
<rect x="0.166992" width="40" height="40" rx="8" fill="#05041F" fill-opacity="0.08"/>
<rect x="0.666992" y="0.5" width="39" height="39" rx="7.5" stroke="white" stroke-opacity="0.08"/>
<rect x="0.166992" width="40" height="40" fill="url(#paint0_radial_165_384)"/>
<g clip-path="url(#clip1_165_384)">
<path d="M20.167 11C17.78 11 15.4909 11.9482 13.803 13.636C12.1152 15.3239 11.167 17.6131 11.167 20C11.167 22.3869 12.1152 24.6761 13.803 26.364C15.4909 28.0518 17.78 29 20.167 29C22.5539 29 24.8431 28.0518 26.531 26.364C28.2188 24.6761 29.167 22.3869 29.167 20C29.167 17.6131 28.2188 15.3239 26.531 13.636C24.8431 11.9482 22.5539 11 20.167 11ZM22.5392 27.3372H22.4695C22.4171 27.3402 22.3647 27.3324 22.3154 27.3144C22.2661 27.2963 22.2211 27.2684 22.183 27.2323C22.1478 27.1951 22.1204 27.1512 22.1024 27.1033C22.0843 27.0554 22.0761 27.0044 22.078 26.9532V25.8988C22.0825 25.5485 22.0855 25.1937 22.0855 24.8368C22.0843 24.5757 22.0461 24.3161 21.9722 24.0658C21.9022 23.8126 21.7612 23.5849 21.5657 23.4095C22.0885 23.359 22.6024 23.2403 23.0942 23.0563C23.5092 22.8985 23.8845 22.6517 24.1937 22.3333C24.499 22.013 24.7262 21.626 24.8575 21.2037C25.0171 20.6866 25.0931 20.1473 25.0825 19.6063C25.0854 19.2285 25.0193 18.8533 24.8875 18.4992C24.7535 18.1424 24.551 17.8152 24.2912 17.5363C24.3473 17.3955 24.388 17.2492 24.4127 17.0998C24.4375 16.9498 24.4502 16.7982 24.4502 16.6467C24.4502 16.4517 24.4277 16.2568 24.3827 16.067C24.3419 15.8724 24.2865 15.6811 24.217 15.4948C24.1905 15.4844 24.1622 15.4793 24.1337 15.4798H24.0512C23.8787 15.4812 23.7092 15.5097 23.5457 15.563C23.3656 15.6156 23.1895 15.6807 23.0185 15.758C22.8485 15.8342 22.6829 15.9201 22.5227 16.0152C22.3615 16.1105 22.219 16.202 22.093 16.2867C20.8313 15.9351 19.4974 15.9351 18.2357 16.2867C18.095 16.1927 17.952 16.1022 17.8067 16.0152C17.6443 15.9193 17.4759 15.8336 17.3027 15.7587C17.1322 15.6789 16.9554 15.6134 16.774 15.563C16.6137 15.5101 16.4463 15.482 16.2775 15.4798H16.195C16.1668 15.4794 16.1388 15.4844 16.1125 15.4948C16.042 15.6814 15.9844 15.8725 15.94 16.067C15.8995 16.2575 15.88 16.4517 15.8792 16.6467C15.8792 16.7982 15.892 16.9498 15.9175 17.0998C15.9422 17.249 15.982 17.3953 16.0375 17.5363C15.7784 17.8156 15.5766 18.143 15.4435 18.5C15.311 18.8539 15.2441 19.2291 15.2462 19.607C15.2358 20.1452 15.3096 20.6817 15.4652 21.197C15.601 21.6192 15.8275 22.007 16.1282 22.334C16.4395 22.6505 16.8145 22.8965 17.2277 23.057C17.7175 23.2445 18.2305 23.3645 18.7525 23.414C18.6067 23.5461 18.4911 23.708 18.4135 23.8888C18.3396 24.0675 18.2892 24.2551 18.2635 24.4468C17.9883 24.5785 17.6873 24.6477 17.3822 24.6493C17.0989 24.6606 16.8193 24.5818 16.5835 24.4242C16.3573 24.2566 16.1658 24.0468 16.0195 23.8063C15.954 23.7052 15.8808 23.6094 15.8005 23.5198C15.7158 23.4254 15.6224 23.3393 15.5215 23.2625C15.4221 23.1882 15.3131 23.1277 15.1975 23.0825C15.0838 23.0326 14.9609 23.0068 14.8367 23.0068C14.8067 23.0075 14.7767 23.0105 14.7467 23.0142C14.7058 23.0141 14.6649 23.0192 14.6252 23.0292C14.5903 23.0384 14.5573 23.0536 14.5277 23.0743C14.5143 23.0817 14.503 23.0925 14.4951 23.1057C14.4872 23.1189 14.483 23.1339 14.4827 23.1493C14.4859 23.1853 14.4969 23.2203 14.5151 23.2517C14.5332 23.283 14.558 23.31 14.5877 23.3307C14.6575 23.3862 14.7152 23.429 14.7617 23.459L14.7842 23.4747C14.884 23.552 14.98 23.6353 15.0707 23.7245C15.1547 23.798 15.2305 23.8812 15.2957 23.972C15.3632 24.0612 15.4217 24.1565 15.469 24.2577C15.5237 24.3582 15.5815 24.4737 15.6422 24.605C15.7832 24.9605 16.0337 25.2612 16.3577 25.4637C16.6975 25.646 17.0785 25.7367 17.4647 25.727C17.5952 25.727 17.7265 25.7195 17.8562 25.7045C17.9852 25.6835 18.1135 25.6617 18.2425 25.6362V26.9435C18.2448 26.9962 18.236 27.0488 18.2166 27.0979C18.1972 27.147 18.1677 27.1914 18.13 27.2283C18.0923 27.2651 18.0472 27.2936 17.9977 27.3119C17.9482 27.3302 17.8954 27.3378 17.8427 27.3342H17.7962C16.0473 26.7692 14.5575 25.5984 13.5952 24.0325C12.6328 22.4666 12.2612 20.6085 12.5472 18.7929C12.8332 16.9774 13.758 15.3235 15.1551 14.1293C16.5522 12.935 18.3298 12.2788 20.1677 12.2788C22.0057 12.2788 23.7833 12.935 25.1804 14.1293C26.5775 15.3235 27.5023 16.9774 27.7883 18.7929C28.0743 20.6085 27.7026 22.4666 26.7403 24.0325C25.778 25.5984 24.2882 26.7692 22.5392 27.3342V27.3372Z" fill="white"/>
</g>
</g>
</g>
<defs>
<filter id="filter0_i_165_384" x="0.166992" y="0" width="40" height="40" filterUnits="userSpaceOnUse" color-interpolation-filters="sRGB">
<feFlood flood-opacity="0" result="BackgroundImageFix"/>
<feBlend mode="normal" in="SourceGraphic" in2="BackgroundImageFix" result="shape"/>
<feColorMatrix in="SourceAlpha" type="matrix" values="0 0 0 0 0 0 0 0 0 0 0 0 0 0 0 0 0 0 127 0" result="hardAlpha"/>
<feMorphology radius="0.82" operator="erode" in="SourceAlpha" result="effect1_innerShadow_165_384"/>
<feOffset/>
<feGaussianBlur stdDeviation="4"/>
<feComposite in2="hardAlpha" operator="arithmetic" k2="-1" k3="1"/>
<feColorMatrix type="matrix" values="0 0 0 0 1 0 0 0 0 1 0 0 0 0 1 0 0 0 0.12 0"/>
<feBlend mode="normal" in2="shape" result="effect1_innerShadow_165_384"/>
</filter>
<radialGradient id="paint0_radial_165_384" cx="0" cy="0" r="1" gradientUnits="userSpaceOnUse" gradientTransform="translate(20.167 40) scale(40)">
<stop stop-color="white" stop-opacity="0.04"/>
<stop offset="1" stop-color="white" stop-opacity="0"/>
</radialGradient>
<clipPath id="clip0_165_384">
<rect x="0.166992" width="40" height="40" rx="8" fill="white"/>
</clipPath>
<clipPath id="clip1_165_384">
<rect width="18" height="18" fill="white" transform="translate(11.167 11)"/>
</clipPath>
</defs>
</svg>
