<svg width="41" height="40" viewBox="0 0 41 40" fill="none" xmlns="http://www.w3.org/2000/svg">
<g filter="url(#filter0_i_165_367)">
<g clip-path="url(#clip0_165_367)">
<rect x="0.5" width="40" height="40" rx="8" fill="#05041F" fill-opacity="0.08"/>
<rect x="1" y="0.5" width="39" height="39" rx="7.5" stroke="white" stroke-opacity="0.08"/>
<rect x="0.5" width="40" height="40" fill="url(#paint0_radial_165_367)"/>
<g clip-path="url(#clip1_165_367)">
<g clip-path="url(#clip2_165_367)">
<path d="M20.5003 17.7093C20.1995 17.7093 19.9016 17.7686 19.6236 17.8837C19.3456 17.9989 19.0931 18.1676 18.8803 18.3803C18.6676 18.5931 18.4989 18.8456 18.3837 19.1236C18.2686 19.4016 18.2093 19.6995 18.2093 20.0003C18.2093 20.3012 18.2686 20.5991 18.3837 20.8771C18.4989 21.155 18.6676 21.4076 18.8803 21.6203C19.0931 21.833 19.3456 22.0018 19.6236 22.1169C19.9016 22.2321 20.1995 22.2913 20.5003 22.2913C21.1079 22.2913 21.6907 22.05 22.1203 21.6203C22.55 21.1907 22.7913 20.6079 22.7913 20.0003C22.7913 19.3927 22.55 18.81 22.1203 18.3803C21.6907 17.9507 21.1079 17.7093 20.5003 17.7093ZM20.5003 16.1813C21.0071 16.1731 21.5105 16.2659 21.981 16.4541C22.4516 16.6424 22.8801 16.9224 23.2413 17.2779C23.6026 17.6334 23.8896 18.0572 24.0854 18.5247C24.2813 18.9922 24.3821 19.494 24.3821 20.0008C24.3821 20.5077 24.2813 21.0095 24.0854 21.4769C23.8896 21.9444 23.6026 22.3683 23.2413 22.7237C22.8801 23.0792 22.4516 23.3593 21.981 23.5475C21.5105 23.7358 21.0071 23.8285 20.5003 23.8203C19.4872 23.8203 18.5156 23.4179 17.7992 22.7015C17.0828 21.9851 16.6803 21.0135 16.6803 20.0003C16.6803 18.9872 17.0828 18.0156 17.7992 17.2992C18.5156 16.5828 19.4872 16.1813 20.5003 16.1813ZM25.4653 15.9903C25.4695 16.1183 25.4478 16.2457 25.4017 16.3652C25.3556 16.4846 25.286 16.5935 25.197 16.6855C25.1079 16.7775 25.0013 16.8506 24.8834 16.9005C24.7655 16.9505 24.6388 16.9762 24.5108 16.9762C24.3828 16.9762 24.2561 16.9505 24.1382 16.9005C24.0204 16.8506 23.9137 16.7775 23.8247 16.6855C23.7357 16.5935 23.666 16.4846 23.6199 16.3652C23.5738 16.2457 23.5522 16.1183 23.5563 15.9903C23.5563 15.737 23.6569 15.4941 23.836 15.315C24.0151 15.1359 24.258 15.0353 24.5113 15.0353C24.7646 15.0353 25.0075 15.1359 25.1866 15.315C25.3657 15.4941 25.4653 15.737 25.4653 15.9903ZM20.5003 13.8903C18.6103 13.8903 18.3023 13.8943 17.4233 13.9333C16.8233 13.9623 16.4223 14.0423 16.0493 14.1873C15.7183 14.3153 15.4793 14.4693 15.2243 14.7243C14.9843 14.9553 14.8013 15.2373 14.6863 15.5493C14.5413 15.9233 14.4613 16.3243 14.4333 16.9233C14.3933 17.7663 14.3893 18.0613 14.3893 20.0003C14.3893 21.8903 14.3943 22.1993 14.4333 23.0783C14.4623 23.6763 14.5423 24.0783 14.6863 24.4513C14.8163 24.7833 14.9693 25.0223 15.2233 25.2763C15.4803 25.5323 15.7193 25.6863 16.0483 25.8133C16.4253 25.9593 16.8273 26.0403 17.4233 26.0673C18.2663 26.1073 18.5613 26.1113 20.5003 26.1113C22.3903 26.1113 22.6993 26.1063 23.5783 26.0673C24.1753 26.0393 24.5783 25.9593 24.9513 25.8143C25.2813 25.6853 25.5223 25.5323 25.7763 25.2783C26.0333 25.0203 26.1863 24.7813 26.3133 24.4533C26.4593 24.0763 26.5403 23.6733 26.5673 23.0783C26.6073 22.2353 26.6113 21.9403 26.6113 20.0003C26.6113 18.1103 26.6063 17.8023 26.5673 16.9233C26.5393 16.3253 26.4593 15.9223 26.3133 15.5493C26.1982 15.2377 26.0147 14.9557 25.7763 14.7243C25.5455 14.485 25.2634 14.3011 24.9513 14.1863C24.5773 14.0413 24.1753 13.9613 23.5783 13.9333C22.7353 13.8933 22.4403 13.8903 20.5003 13.8903ZM20.5003 12.3613C22.5763 12.3613 22.8353 12.3693 23.6493 12.4073C24.4633 12.4453 25.0163 12.5733 25.5043 12.7623C26.0083 12.9563 26.4333 13.2193 26.8573 13.6433C27.2463 14.0253 27.5473 14.4873 27.7383 14.9973C27.9273 15.4833 28.0553 16.0373 28.0933 16.8513C28.1293 17.6663 28.1393 17.9253 28.1393 20.0013C28.1393 22.0763 28.1313 22.3353 28.0933 23.1493C28.0553 23.9633 27.9273 24.5163 27.7383 25.0043C27.5473 25.5143 27.2463 25.9763 26.8583 26.3573C26.4762 26.7457 26.0142 27.0463 25.5043 27.2383C25.0173 27.4273 24.4623 27.5553 23.6493 27.5933C22.8353 27.6293 22.5763 27.6393 20.5003 27.6393C18.4253 27.6393 18.1663 27.6313 17.3513 27.5933C16.5383 27.5553 15.9843 27.4273 15.4973 27.2383C14.9872 27.0472 14.5251 26.7469 14.1433 26.3583C13.755 25.9763 13.4547 25.5143 13.2633 25.0043C13.0733 24.5173 12.9453 23.9623 12.9073 23.1493C12.8713 22.3353 12.8613 22.0763 12.8613 20.0003C12.8613 17.9253 12.8693 17.6663 12.9073 16.8513C12.9453 16.0373 13.0733 15.4843 13.2623 14.9973C13.4543 14.4873 13.7543 14.0253 14.1433 13.6433C14.5252 13.2549 14.9873 12.9546 15.4973 12.7633C15.9843 12.5733 16.5373 12.4453 17.3513 12.4073C18.1663 12.3713 18.4253 12.3613 20.5013 12.3613H20.5003Z" fill="white"/>
</g>
</g>
</g>
</g>
<defs>
<filter id="filter0_i_165_367" x="0.5" y="0" width="40" height="40" filterUnits="userSpaceOnUse" color-interpolation-filters="sRGB">
<feFlood flood-opacity="0" result="BackgroundImageFix"/>
<feBlend mode="normal" in="SourceGraphic" in2="BackgroundImageFix" result="shape"/>
<feColorMatrix in="SourceAlpha" type="matrix" values="0 0 0 0 0 0 0 0 0 0 0 0 0 0 0 0 0 0 127 0" result="hardAlpha"/>
<feMorphology radius="0.82" operator="erode" in="SourceAlpha" result="effect1_innerShadow_165_367"/>
<feOffset/>
<feGaussianBlur stdDeviation="4"/>
<feComposite in2="hardAlpha" operator="arithmetic" k2="-1" k3="1"/>
<feColorMatrix type="matrix" values="0 0 0 0 1 0 0 0 0 1 0 0 0 0 1 0 0 0 0.12 0"/>
<feBlend mode="normal" in2="shape" result="effect1_innerShadow_165_367"/>
</filter>
<radialGradient id="paint0_radial_165_367" cx="0" cy="0" r="1" gradientUnits="userSpaceOnUse" gradientTransform="translate(20.5 40) scale(40)">
<stop stop-color="white" stop-opacity="0.04"/>
<stop offset="1" stop-color="white" stop-opacity="0"/>
</radialGradient>
<clipPath id="clip0_165_367">
<rect x="0.5" width="40" height="40" rx="8" fill="white"/>
</clipPath>
<clipPath id="clip1_165_367">
<rect width="24" height="24" fill="white" transform="translate(8.5 8)"/>
</clipPath>
<clipPath id="clip2_165_367">
<rect width="24" height="24" fill="white" transform="translate(8.5 8)"/>
</clipPath>
</defs>
</svg>
