<svg width="148" height="49" viewBox="0 0 148 49" fill="none" xmlns="http://www.w3.org/2000/svg">
<g filter="url(#filter0_d_165_403)">
<path d="M7.49188 -1.90735e-06V17.68L20.4119 -1.90735e-06L20.7319 0.279999L13.5719 10.04L24.2119 28H20.4919L11.5319 12.84L7.49188 18.4V28H4.17188V-1.90735e-06H7.49188ZM35.6941 28.16C32.8941 28.16 30.6141 27.36 28.8541 25.76C27.0941 24.16 26.2141 21.6933 26.2141 18.36C26.2141 15.0267 27.1207 12.44 28.9341 10.6C30.7741 8.76 33.0941 7.84 35.8941 7.84C38.7207 7.84 41.0141 8.64 42.7741 10.24C44.5341 11.84 45.4141 14.3067 45.4141 17.64C45.4141 20.9733 44.4941 23.56 42.6541 25.4C40.8407 27.24 38.5207 28.16 35.6941 28.16ZM35.9741 8.16C33.9474 8.16 32.2674 9.06667 30.9341 10.88C29.6007 12.6667 28.9341 15.1733 28.9341 18.4C28.9341 21.6 29.5474 23.9733 30.7741 25.52C32.0007 27.0667 33.6274 27.84 35.6541 27.84C37.6807 27.84 39.3607 26.9467 40.6941 25.16C42.0274 23.3467 42.6941 20.84 42.6941 17.64C42.6941 14.4133 42.0807 12.0267 40.8541 10.48C39.6274 8.93333 38.0007 8.16 35.9741 8.16ZM55.4556 9.72V8.88C54.2556 9.36 53.1623 10.3333 52.1756 11.8C51.189 13.24 50.669 14.6 50.6156 15.88V28H47.8156V8H50.6156V14.36C51.0423 12.8133 51.8556 11.36 53.0556 10C54.2556 8.61333 55.6156 7.89333 57.1356 7.84H57.2956C57.829 7.84 58.269 8.02667 58.6156 8.4C58.989 8.74667 59.1756 9.18667 59.1756 9.72C59.1756 10.2533 58.989 10.6933 58.6156 11.04C58.269 11.3867 57.829 11.56 57.2956 11.56C56.7623 11.56 56.3223 11.3867 55.9756 11.04C55.629 10.6933 55.4556 10.2533 55.4556 9.72ZM61.9906 8.32V8H62.8306V4H65.6306V8H71.7506V8.32H65.6306V22.88C65.6306 24.6133 65.8173 25.8667 66.1906 26.64C66.5906 27.4133 67.404 27.8 68.6306 27.8C69.884 27.8 71.1506 27.5467 72.4306 27.04L72.5506 27.36C71.2173 27.8667 69.684 28.12 67.9506 28.12C66.244 28.12 64.964 27.7733 64.1106 27.08C63.2573 26.36 62.8306 24.9467 62.8306 22.84V8.32H61.9906ZM77.0591 18.24C77.0591 21.5467 77.6324 23.9733 78.7791 25.52C79.9524 27.0667 81.4857 27.84 83.3791 27.84C86.0457 27.84 88.4191 27.44 90.4991 26.64L90.6191 26.92C88.4857 27.7467 86.0724 28.16 83.3791 28.16C80.7124 28.16 78.5391 27.36 76.8591 25.76C75.1791 24.16 74.3391 21.6933 74.3391 18.36C74.3391 15.0267 75.2191 12.44 76.9791 10.6C78.7391 8.76 80.9791 7.84 83.6991 7.84C85.8857 7.84 87.7257 8.49333 89.2191 9.8C90.7124 11.1067 91.4591 13.04 91.4591 15.6C91.4591 15.7333 91.4591 15.8667 91.4591 16H77.1791C77.0991 16.72 77.0591 17.4667 77.0591 18.24ZM88.7391 15.68C88.7124 13.12 88.2191 11.2267 87.2591 10C86.2991 8.77333 85.0591 8.16 83.5391 8.16C82.0191 8.16 80.6591 8.82667 79.4591 10.16C78.2857 11.4933 77.5391 13.3333 77.2191 15.68H88.7391Z" fill="#DADADA" fill-opacity="0.8" shape-rendering="crispEdges"/>
<path d="M91.38 40.28C90.9 40.4933 90.3533 40.6 89.74 40.6C89.3933 40.6 89.0867 40.56 88.82 40.48C88.5533 40.4 88.42 40.2667 88.42 40.08C88.42 39.8933 88.5933 39.6667 88.94 39.4C89.26 39.16 89.8333 38.8667 90.66 38.52C91.0867 38.28 91.7 37.84 92.5 37.2C93.2733 36.5867 94.14 35.8533 95.1 35C96.06 34.1467 97.0333 33.2667 98.02 32.36C99.0333 31.4533 99.9533 30.6133 100.78 29.84C101.633 29.0667 102.34 28.4267 102.9 27.92C103.46 27.4133 103.78 27.1467 103.86 27.12C104.393 26.56 104.953 26 105.54 25.44C106.127 24.9067 106.727 24.32 107.34 23.68C107.953 23.0133 108.567 22.4267 109.18 21.92C109.287 21.8133 109.513 21.5867 109.86 21.24C110.233 20.8667 110.593 20.52 110.94 20.2C111.287 19.8533 111.5 19.6667 111.58 19.64C111.687 19.48 111.873 19.2933 112.14 19.08C112.433 18.84 112.673 18.6533 112.86 18.52L114.7 16.76C114.993 16.52 115.273 16.2933 115.54 16.08C115.833 15.84 116.113 15.6133 116.38 15.4C116.353 14.9733 116.327 14.6 116.3 14.28C116.273 13.9333 116.26 13.7467 116.26 13.72L116.7 10.24C116.753 10.0533 116.74 9.73333 116.66 9.28C116.607 8.8 116.58 8.28 116.58 7.72C116.58 7.26666 116.62 6.81333 116.7 6.36C116.78 5.90667 116.94 5.50667 117.18 5.16C116.86 5.10667 116.553 5.08 116.26 5.08C116.047 5.08 115.927 5.10667 115.9 5.16C115.793 5.10667 115.687 5.08 115.58 5.08C115.5 5.08 115.42 5.06667 115.34 5.04C115.207 5.14667 114.94 5.2 114.54 5.2C114.247 5.2 113.913 5.18666 113.54 5.16C113.193 5.10667 112.887 5.08 112.62 5.08C112.327 5.08 112.14 5.12 112.06 5.2C110.887 5.28 109.553 5.57333 108.06 6.08C106.593 6.56 105.127 7.24 103.66 8.12C102.22 8.97333 100.913 10.0267 99.74 11.28C98.5667 12.5067 97.6867 13.9067 97.1 15.48C96.9667 15.8533 96.82 16.3467 96.66 16.96C96.5 17.5467 96.4467 18.3867 96.5 19.48C96.5 19.5067 96.4733 19.5333 96.42 19.56C96.3667 19.56 96.3133 19.4267 96.26 19.16C96.18 18.8667 96.14 18.32 96.14 17.52C96.1133 17.4933 96.1 17.4533 96.1 17.4C96.1 17.2933 96.1267 17.1867 96.18 17.08C96.2067 16.9733 96.1667 16.9067 96.06 16.88L95.46 17.44C95.4067 17.3067 95.42 17.0933 95.5 16.8C95.58 16.5067 95.6867 16.2 95.82 15.88C95.9267 15.5333 96.0333 15.28 96.14 15.12C96.9933 13.6533 98.0867 12.2133 99.42 10.8C100.753 9.36 102.087 8.18667 103.42 7.28C103.82 7.01333 104.22 6.78667 104.62 6.6C105.02 6.38667 105.42 6.17333 105.82 5.96L107.42 5.16C107.687 5.08 108.127 4.93333 108.74 4.72C109.353 4.48 109.953 4.26667 110.54 4.08C111.153 3.86667 111.58 3.81333 111.82 3.92L113.02 3.72C113.233 3.53333 113.767 3.4 114.62 3.32C115.5 3.24 116.34 3.2 117.14 3.2C117.54 3.2 117.9 3.21333 118.22 3.24C118.54 3.24 118.753 3.26667 118.86 3.32V3.28C118.913 3.25333 118.993 3.24 119.1 3.24C119.233 3.24 119.38 3.29333 119.54 3.4C119.7 3.32 119.847 3.30667 119.98 3.36C120.087 3.36 120.18 3.38666 120.26 3.44C120.34 3.46667 120.42 3.49333 120.5 3.52H120.62C120.753 3.52 120.873 3.56 120.98 3.64C121.087 3.69333 121.18 3.74667 121.26 3.8C121.34 3.74667 121.433 3.72 121.54 3.72C121.62 3.72 121.727 3.78666 121.86 3.92C121.993 3.84 122.06 3.82667 122.06 3.88C122.007 4.30667 121.86 4.68 121.62 5L121.5 5.28C121.42 5.41333 121.3 5.66667 121.14 6.04C121.007 6.41333 120.847 6.77333 120.66 7.12C120.5 7.44 120.327 7.65333 120.14 7.76C120.14 7.76 120.14 7.84 120.14 8C120.14 8.13333 120.087 8.45333 119.98 8.96C119.9 9.44 119.74 10.2133 119.5 11.28C119.393 11.3067 119.313 11.4667 119.26 11.76C119.207 12.0533 119.167 12.3867 119.14 12.76C119.513 12.3867 119.967 12 120.5 11.6C120.633 11.52 120.833 11.3733 121.1 11.16C121.367 10.92 121.633 10.6933 121.9 10.48C122.167 10.2667 122.367 10.1467 122.5 10.12L123.66 9.4L124.9 8.64C125.193 8.48 125.487 8.32 125.78 8.16C126.073 7.97333 126.38 7.8 126.7 7.64C126.94 7.50667 127.287 7.30667 127.74 7.04C128.22 6.77333 128.62 6.61333 128.94 6.56C129.073 6.45333 129.393 6.29333 129.9 6.08C130.407 5.86666 130.753 5.72 130.94 5.64L132.5 5.04C132.66 4.96 132.913 4.85333 133.26 4.72C133.607 4.56 133.847 4.44 133.98 4.36L135.3 4.08L135.5 4.04C135.633 3.93333 135.86 3.85333 136.18 3.8C136.5 3.74667 136.82 3.70666 137.14 3.68C137.487 3.62667 137.74 3.6 137.9 3.6L138.42 3.52C138.553 3.46667 138.673 3.45333 138.78 3.48C138.913 3.48 139.033 3.46667 139.14 3.44C139.513 3.38666 139.847 3.41333 140.14 3.52C140.433 3.62666 140.753 3.69333 141.1 3.72C141.233 3.74667 141.42 3.8 141.66 3.88C141.9 3.93333 142.087 3.97333 142.22 4C142.353 4.08 142.54 4.18667 142.78 4.32C143.047 4.45333 143.193 4.58667 143.22 4.72C143.22 4.90667 143.18 5 143.1 5C143.073 5 143.02 4.97333 142.94 4.92C142.887 4.84 142.833 4.77333 142.78 4.72C142.593 4.66667 142.407 4.58667 142.22 4.48C142.033 4.37333 141.82 4.30667 141.58 4.28C141.527 4.28 141.46 4.28 141.38 4.28C141.3 4.25333 141.233 4.24 141.18 4.24C140.647 4.24 140.073 4.33333 139.46 4.52C138.873 4.70667 138.287 4.86666 137.7 5C137.513 5.05333 137.327 5.09333 137.14 5.12C136.98 5.14667 136.807 5.18667 136.62 5.24C136.62 5.24 136.473 5.32 136.18 5.48C135.887 5.64 135.66 5.74667 135.5 5.8C135.34 5.8 135.3 5.73333 135.38 5.6C135.487 5.44 135.46 5.38667 135.3 5.44C135.247 5.49333 135.1 5.58667 134.86 5.72C134.647 5.85333 134.433 5.97333 134.22 6.08C134.033 6.18667 133.94 6.26667 133.94 6.32C133.913 6.32 133.873 6.33333 133.82 6.36C133.767 6.36 133.727 6.34667 133.7 6.32C133.38 6.50667 133.113 6.62667 132.9 6.68C132.713 6.73333 132.513 6.78667 132.3 6.84C132.113 6.89333 131.847 7.01333 131.5 7.2C131.233 7.30667 130.873 7.45333 130.42 7.64C129.967 7.82667 129.58 7.97333 129.26 8.08C128.993 8.37333 128.553 8.64 127.94 8.88C127.353 9.12 126.86 9.36 126.46 9.6C125.26 10.3467 124.1 11.1067 122.98 11.88C121.887 12.6533 120.593 13.64 119.1 14.84C119.1 15.16 119.1 15.48 119.1 15.8C119.127 16.0933 119.127 16.4267 119.1 16.8C119.18 16.88 119.22 16.96 119.22 17.04C119.22 17.12 119.18 17.2133 119.1 17.32C119.047 17.4267 119.02 17.5333 119.02 17.64L119.3 18.08C119.327 18.1333 119.367 18.36 119.42 18.76C119.473 19.1333 119.527 19.5733 119.58 20.08C119.66 20.5867 119.727 21.0933 119.78 21.6C119.86 22.08 119.94 22.44 120.02 22.68C120.287 22.8667 120.46 23.0667 120.54 23.28C120.62 23.4933 120.66 23.72 120.66 23.96C120.66 24.1467 120.647 24.3333 120.62 24.52C120.593 24.68 120.58 24.84 120.58 25C120.58 25.1867 120.607 25.3733 120.66 25.56C120.713 25.7467 120.82 25.92 120.98 26.08C121.087 26.1867 121.247 26.44 121.46 26.84C121.7 27.24 121.993 27.6133 122.34 27.96C122.713 28.3067 123.153 28.4933 123.66 28.52C124.033 28.52 124.433 28.32 124.86 27.92C125.313 27.4933 125.713 27.04 126.06 26.56C126.433 26.08 126.673 25.76 126.78 25.6L127.1 25.12C127.153 25.1733 127.167 25.2 127.14 25.2C127.113 25.28 127.06 25.5067 126.98 25.88C126.9 26.2267 126.887 26.4133 126.94 26.44C126.913 26.4667 126.86 26.5067 126.78 26.56C126.7 26.5867 126.673 26.6133 126.7 26.64L126.34 27.4C126.1 27.6133 125.713 27.9067 125.18 28.28C124.673 28.68 124.127 29.0133 123.54 29.28C122.953 29.5733 122.46 29.68 122.06 29.6C121.873 29.5467 121.767 29.48 121.74 29.4C121.74 29.3467 121.633 29.28 121.42 29.2C121.34 29.1733 121.233 29.16 121.1 29.16C120.94 29.16 120.793 29.1733 120.66 29.2C120.527 29.2267 120.393 29.24 120.26 29.24C120.18 29.24 120.1 29.2267 120.02 29.2C119.94 29.2 119.86 29.1733 119.78 29.12C119.433 28.9067 119.18 28.6133 119.02 28.24C118.887 27.8667 118.713 27.5467 118.5 27.28C118.287 26.96 118.1 26.4933 117.94 25.88C117.807 25.2667 117.687 24.6533 117.58 24.04C117.5 23.4267 117.407 22.9467 117.3 22.6C117.033 21.6667 116.807 20.8133 116.62 20.04C116.433 19.24 116.38 18.3467 116.46 17.36V16.84C115.313 17.7467 114.18 18.6933 113.06 19.68C111.94 20.6667 110.82 21.7067 109.7 22.8L106.46 25.92C106.353 26.0267 106.207 26.1333 106.02 26.24C105.86 26.32 105.74 26.4267 105.66 26.56L105.46 26.88C104.26 28.08 103.033 29.4 101.78 30.84C100.527 32.3067 99.3133 33.6533 98.14 34.88C97.58 35.44 96.9133 36.1067 96.14 36.88C95.3667 37.6533 94.5667 38.36 93.74 39C92.9133 39.64 92.1267 40.0667 91.38 40.28Z" fill="#71EBBA" fill-opacity="0.58" shape-rendering="crispEdges"/>
</g>
<defs>
<filter id="filter0_d_165_403" x="0.171875" y="0" width="147.048" height="48.6001" filterUnits="userSpaceOnUse" color-interpolation-filters="sRGB">
<feFlood flood-opacity="0" result="BackgroundImageFix"/>
<feColorMatrix in="SourceAlpha" type="matrix" values="0 0 0 0 0 0 0 0 0 0 0 0 0 0 0 0 0 0 127 0" result="hardAlpha"/>
<feOffset dy="4"/>
<feGaussianBlur stdDeviation="2"/>
<feComposite in2="hardAlpha" operator="out"/>
<feColorMatrix type="matrix" values="0 0 0 0 0 0 0 0 0 0 0 0 0 0 0 0 0 0 0.25 0"/>
<feBlend mode="normal" in2="BackgroundImageFix" result="effect1_dropShadow_165_403"/>
<feBlend mode="normal" in="SourceGraphic" in2="effect1_dropShadow_165_403" result="shape"/>
</filter>
</defs>
</svg>
