<svg width="41" height="40" viewBox="0 0 41 40" fill="none" xmlns="http://www.w3.org/2000/svg">
<g filter="url(#filter0_i_165_398)">
<g clip-path="url(#clip0_165_398)">
<rect x="0.5" width="40" height="40" rx="8" fill="#05041F" fill-opacity="0.08"/>
<rect x="1" y="0.5" width="39" height="39" rx="7.5" stroke="white" stroke-opacity="0.08"/>
<rect x="0.5" width="40" height="40" fill="url(#paint0_radial_165_398)"/>
<g clip-path="url(#clip1_165_398)">
<path d="M17.1253 25.8711H14.6643V17.9258H17.1253V25.8711ZM17.3708 15.3944C17.3708 14.5988 16.7254 13.9531 15.9302 13.9531C15.1321 13.9531 14.4883 14.5988 14.4883 15.3944C14.4883 16.1902 15.1321 16.8359 15.9302 16.8359C16.7254 16.8359 17.3708 16.1902 17.3708 15.3944ZM26.3359 21.4999C26.3359 19.3671 25.8854 17.7852 23.3938 17.7852C22.1966 17.7852 21.3929 18.3839 21.0648 19.0066H21.0625V17.9258H18.6719V25.8711H21.0625V21.9262C21.0625 20.8931 21.3255 19.8922 22.6061 19.8922C23.8692 19.8922 23.9102 21.0736 23.9102 21.9918V25.8711H26.3359V21.4999ZM29.5 26.8906V13.1094C29.5 11.9462 28.5538 11 27.3906 11H13.6094C12.4462 11 11.5 11.9462 11.5 13.1094V26.8906C11.5 28.0538 12.4462 29 13.6094 29H27.3906C28.5538 29 29.5 28.0538 29.5 26.8906ZM27.3906 12.4062C27.7783 12.4062 28.0938 12.7217 28.0938 13.1094V26.8906C28.0938 27.2783 27.7783 27.5938 27.3906 27.5938H13.6094C13.2217 27.5938 12.9062 27.2783 12.9062 26.8906V13.1094C12.9062 12.7217 13.2217 12.4062 13.6094 12.4062H27.3906Z" fill="white"/>
</g>
</g>
</g>
<defs>
<filter id="filter0_i_165_398" x="0.5" y="0" width="40" height="40" filterUnits="userSpaceOnUse" color-interpolation-filters="sRGB">
<feFlood flood-opacity="0" result="BackgroundImageFix"/>
<feBlend mode="normal" in="SourceGraphic" in2="BackgroundImageFix" result="shape"/>
<feColorMatrix in="SourceAlpha" type="matrix" values="0 0 0 0 0 0 0 0 0 0 0 0 0 0 0 0 0 0 127 0" result="hardAlpha"/>
<feMorphology radius="0.82" operator="erode" in="SourceAlpha" result="effect1_innerShadow_165_398"/>
<feOffset/>
<feGaussianBlur stdDeviation="4"/>
<feComposite in2="hardAlpha" operator="arithmetic" k2="-1" k3="1"/>
<feColorMatrix type="matrix" values="0 0 0 0 1 0 0 0 0 1 0 0 0 0 1 0 0 0 0.12 0"/>
<feBlend mode="normal" in2="shape" result="effect1_innerShadow_165_398"/>
</filter>
<radialGradient id="paint0_radial_165_398" cx="0" cy="0" r="1" gradientUnits="userSpaceOnUse" gradientTransform="translate(20.5 40) scale(40)">
<stop stop-color="white" stop-opacity="0.04"/>
<stop offset="1" stop-color="white" stop-opacity="0"/>
</radialGradient>
<clipPath id="clip0_165_398">
<rect x="0.5" width="40" height="40" rx="8" fill="white"/>
</clipPath>
<clipPath id="clip1_165_398">
<rect width="18" height="18" fill="white" transform="translate(11.5 11)"/>
</clipPath>
</defs>
</svg>
