<svg width="850" height="850" viewBox="0 0 850 850" fill="none" xmlns="http://www.w3.org/2000/svg">
<rect width="850" height="850" rx="200" fill="url(#paint0_linear_144_10)"/>
<g filter="url(#filter0_d_144_10)">
<path d="M127.2 267V443.8L256.4 267L259.6 269.8L188 367.4L294.4 547H257.2L167.6 395.4L127.2 451V547H94V267H127.2Z" fill="white" fill-opacity="0.8" shape-rendering="crispEdges"/>
<path d="M257.034 669.8C252.234 671.933 246.768 673 240.634 673C237.168 673 234.101 672.6 231.434 671.8C228.768 671 227.434 669.667 227.434 667.8C227.434 665.933 229.168 663.667 232.634 661C235.834 658.6 241.568 655.667 249.834 652.2C254.101 649.8 260.234 645.4 268.234 639C275.968 632.867 284.634 625.533 294.234 617C303.834 608.467 313.568 599.667 323.434 590.6C333.568 581.533 342.768 573.133 351.034 565.4C359.568 557.667 366.634 551.267 372.234 546.2C377.834 541.133 381.034 538.467 381.834 538.2C387.168 532.6 392.768 527 398.634 521.4C404.501 516.067 410.501 510.2 416.634 503.8C422.768 497.133 428.901 491.267 435.034 486.2C436.101 485.133 438.368 482.867 441.834 479.4C445.568 475.667 449.168 472.2 452.634 469C456.101 465.533 458.234 463.667 459.034 463.4C460.101 461.8 461.968 459.933 464.634 457.8C467.568 455.4 469.968 453.533 471.834 452.2L490.234 434.6C493.168 432.2 495.968 429.933 498.634 427.8C501.568 425.4 504.368 423.133 507.034 421C506.768 416.733 506.501 413 506.234 409.8C505.968 406.333 505.834 404.467 505.834 404.2L510.234 369.4C510.768 367.533 510.634 364.333 509.834 359.8C509.301 355 509.034 349.8 509.034 344.2C509.034 339.667 509.434 335.133 510.234 330.6C511.034 326.067 512.634 322.067 515.034 318.6C511.834 318.067 508.768 317.8 505.834 317.8C503.701 317.8 502.501 318.067 502.234 318.6C501.168 318.067 500.101 317.8 499.034 317.8C498.234 317.8 497.434 317.667 496.634 317.4C495.301 318.467 492.634 319 488.634 319C485.701 319 482.368 318.867 478.634 318.6C475.168 318.067 472.101 317.8 469.434 317.8C466.501 317.8 464.634 318.2 463.834 319C452.101 319.8 438.768 322.733 423.834 327.8C409.168 332.6 394.501 339.4 379.834 348.2C365.434 356.733 352.368 367.267 340.634 379.8C328.901 392.067 320.101 406.067 314.234 421.8C312.901 425.533 311.434 430.467 309.834 436.6C308.234 442.467 307.701 450.867 308.234 461.8C308.234 462.067 307.968 462.333 307.434 462.6C306.901 462.6 306.368 461.267 305.834 458.6C305.034 455.667 304.634 450.2 304.634 442.2C304.368 441.933 304.234 441.533 304.234 441C304.234 439.933 304.501 438.867 305.034 437.8C305.301 436.733 304.901 436.067 303.834 435.8L297.834 441.4C297.301 440.067 297.434 437.933 298.234 435C299.034 432.067 300.101 429 301.434 425.8C302.501 422.333 303.568 419.8 304.634 418.2C313.168 403.533 324.101 389.133 337.434 375C350.768 360.6 364.101 348.867 377.434 339.8C381.434 337.133 385.434 334.867 389.434 333C393.434 330.867 397.434 328.733 401.434 326.6L417.434 318.6C420.101 317.8 424.501 316.333 430.634 314.2C436.768 311.8 442.768 309.667 448.634 307.8C454.768 305.667 459.034 305.133 461.434 306.2L473.434 304.2C475.568 302.333 480.901 301 489.434 300.2C498.234 299.4 506.634 299 514.634 299C518.634 299 522.234 299.133 525.434 299.4C528.634 299.4 530.768 299.667 531.834 300.2V299.8C532.368 299.533 533.168 299.4 534.234 299.4C535.568 299.4 537.034 299.933 538.634 301C540.234 300.2 541.701 300.067 543.034 300.6C544.101 300.6 545.034 300.867 545.834 301.4C546.634 301.667 547.434 301.933 548.234 302.2H549.434C550.768 302.2 551.968 302.6 553.034 303.4C554.101 303.933 555.034 304.467 555.834 305C556.634 304.467 557.568 304.2 558.634 304.2C559.434 304.2 560.501 304.867 561.834 306.2C563.168 305.4 563.834 305.267 563.834 305.8C563.301 310.067 561.834 313.8 559.434 317L558.234 319.8C557.434 321.133 556.234 323.667 554.634 327.4C553.301 331.133 551.701 334.733 549.834 338.2C548.234 341.4 546.501 343.533 544.634 344.6C544.634 344.6 544.634 345.4 544.634 347C544.634 348.333 544.101 351.533 543.034 356.6C542.234 361.4 540.634 369.133 538.234 379.8C537.168 380.067 536.368 381.667 535.834 384.6C535.301 387.533 534.901 390.867 534.634 394.6C538.368 390.867 542.901 387 548.234 383C549.568 382.2 551.568 380.733 554.234 378.6C556.901 376.2 559.568 373.933 562.234 371.8C564.901 369.667 566.901 368.467 568.234 368.2L579.834 361L592.234 353.4C595.168 351.8 598.101 350.2 601.034 348.6C603.968 346.733 607.034 345 610.234 343.4C612.634 342.067 616.101 340.067 620.634 337.4C625.434 334.733 629.434 333.133 632.634 332.6C633.968 331.533 637.168 329.933 642.234 327.8C647.301 325.667 650.768 324.2 652.634 323.4L668.234 317.4C669.834 316.6 672.368 315.533 675.834 314.2C679.301 312.6 681.701 311.4 683.034 310.6L696.234 307.8L698.234 307.4C699.568 306.333 701.834 305.533 705.034 305C708.234 304.467 711.434 304.067 714.634 303.8C718.101 303.267 720.634 303 722.234 303L727.434 302.2C728.768 301.667 729.968 301.533 731.034 301.8C732.368 301.8 733.568 301.667 734.634 301.4C738.368 300.867 741.701 301.133 744.634 302.2C747.568 303.267 750.768 303.933 754.234 304.2C755.568 304.467 757.434 305 759.834 305.8C762.234 306.333 764.101 306.733 765.434 307C766.768 307.8 768.634 308.867 771.034 310.2C773.701 311.533 775.168 312.867 775.434 314.2C775.434 316.067 775.034 317 774.234 317C773.968 317 773.434 316.733 772.634 316.2C772.101 315.4 771.568 314.733 771.034 314.2C769.168 313.667 767.301 312.867 765.434 311.8C763.568 310.733 761.434 310.067 759.034 309.8C758.501 309.8 757.834 309.8 757.034 309.8C756.234 309.533 755.568 309.4 755.034 309.4C749.701 309.4 743.968 310.333 737.834 312.2C731.968 314.067 726.101 315.667 720.234 317C718.368 317.533 716.501 317.933 714.634 318.2C713.034 318.467 711.301 318.867 709.434 319.4C709.434 319.4 707.968 320.2 705.034 321.8C702.101 323.4 699.834 324.467 698.234 325C696.634 325 696.234 324.333 697.034 323C698.101 321.4 697.834 320.867 696.234 321.4C695.701 321.933 694.234 322.867 691.834 324.2C689.701 325.533 687.568 326.733 685.434 327.8C683.568 328.867 682.634 329.667 682.634 330.2C682.368 330.2 681.968 330.333 681.434 330.6C680.901 330.6 680.501 330.467 680.234 330.2C677.034 332.067 674.368 333.267 672.234 333.8C670.368 334.333 668.368 334.867 666.234 335.4C664.368 335.933 661.701 337.133 658.234 339C655.568 340.067 651.968 341.533 647.434 343.4C642.901 345.267 639.034 346.733 635.834 347.8C633.168 350.733 628.768 353.4 622.634 355.8C616.768 358.2 611.834 360.6 607.834 363C595.834 370.467 584.234 378.067 573.034 385.8C562.101 393.533 549.168 403.4 534.234 415.4C534.234 418.6 534.234 421.8 534.234 425C534.501 427.933 534.501 431.267 534.234 435C535.034 435.8 535.434 436.6 535.434 437.4C535.434 438.2 535.034 439.133 534.234 440.2C533.701 441.267 533.434 442.333 533.434 443.4L536.234 447.8C536.501 448.333 536.901 450.6 537.434 454.6C537.968 458.333 538.501 462.733 539.034 467.8C539.834 472.867 540.501 477.933 541.034 483C541.834 487.8 542.634 491.4 543.434 493.8C546.101 495.667 547.834 497.667 548.634 499.8C549.434 501.933 549.834 504.2 549.834 506.6C549.834 508.467 549.701 510.333 549.434 512.2C549.168 513.8 549.034 515.4 549.034 517C549.034 518.867 549.301 520.733 549.834 522.6C550.368 524.467 551.434 526.2 553.034 527.8C554.101 528.867 555.701 531.4 557.834 535.4C560.234 539.4 563.168 543.133 566.634 546.6C570.368 550.067 574.768 551.933 579.834 552.2C583.568 552.2 587.568 550.2 591.834 546.2C596.368 541.933 600.368 537.4 603.834 532.6C607.568 527.8 609.968 524.6 611.034 523L614.234 518.2C614.768 518.733 614.901 519 614.634 519C614.368 519.8 613.834 522.067 613.034 525.8C612.234 529.267 612.101 531.133 612.634 531.4C612.368 531.667 611.834 532.067 611.034 532.6C610.234 532.867 609.968 533.133 610.234 533.4L606.634 541C604.234 543.133 600.368 546.067 595.034 549.8C589.968 553.8 584.501 557.133 578.634 559.8C572.768 562.733 567.834 563.8 563.834 563C561.968 562.467 560.901 561.8 560.634 561C560.634 560.467 559.568 559.8 557.434 559C556.634 558.733 555.568 558.6 554.234 558.6C552.634 558.6 551.168 558.733 549.834 559C548.501 559.267 547.168 559.4 545.834 559.4C545.034 559.4 544.234 559.267 543.434 559C542.634 559 541.834 558.733 541.034 558.2C537.568 556.067 535.034 553.133 533.434 549.4C532.101 545.667 530.368 542.467 528.234 539.8C526.101 536.6 524.234 531.933 522.634 525.8C521.301 519.667 520.101 513.533 519.034 507.4C518.234 501.267 517.301 496.467 516.234 493C513.568 483.667 511.301 475.133 509.434 467.4C507.568 459.4 507.034 450.467 507.834 440.6V435.4C496.368 444.467 485.034 453.933 473.834 463.8C462.634 473.667 451.434 484.067 440.234 495L407.834 526.2C406.768 527.267 405.301 528.333 403.434 529.4C401.834 530.2 400.634 531.267 399.834 532.6L397.834 535.8C385.834 547.8 373.568 561 361.034 575.4C348.501 590.067 336.368 603.533 324.634 615.8C319.034 621.4 312.368 628.067 304.634 635.8C296.901 643.533 288.901 650.6 280.634 657C272.368 663.4 264.501 667.667 257.034 669.8Z" fill="#71EBBA" shape-rendering="crispEdges"/>
</g>
<defs>
<filter id="filter0_d_144_10" x="90" y="267" width="689.434" height="414" filterUnits="userSpaceOnUse" color-interpolation-filters="sRGB">
<feFlood flood-opacity="0" result="BackgroundImageFix"/>
<feColorMatrix in="SourceAlpha" type="matrix" values="0 0 0 0 0 0 0 0 0 0 0 0 0 0 0 0 0 0 127 0" result="hardAlpha"/>
<feOffset dy="4"/>
<feGaussianBlur stdDeviation="2"/>
<feComposite in2="hardAlpha" operator="out"/>
<feColorMatrix type="matrix" values="0 0 0 0 0 0 0 0 0 0 0 0 0 0 0 0 0 0 0.25 0"/>
<feBlend mode="normal" in2="BackgroundImageFix" result="effect1_dropShadow_144_10"/>
<feBlend mode="normal" in="SourceGraphic" in2="effect1_dropShadow_144_10" result="shape"/>
</filter>
<linearGradient id="paint0_linear_144_10" x1="0" y1="0" x2="963.7" y2="432.598" gradientUnits="userSpaceOnUse">
<stop stop-color="#010211"/>
<stop offset="0.801406" stop-color="#070009"/>
</linearGradient>
</defs>
</svg>
