<svg width="41" height="40" viewBox="0 0 41 40" fill="none" xmlns="http://www.w3.org/2000/svg">
<g filter="url(#filter0_i_165_389)">
<g clip-path="url(#clip0_165_389)">
<rect x="0.833008" width="40" height="40" rx="8" fill="#05041F" fill-opacity="0.08"/>
<rect x="1.33301" y="0.5" width="39" height="39" rx="7.5" stroke="white" stroke-opacity="0.08"/>
<rect x="0.833008" width="40" height="40" fill="url(#paint0_radial_165_389)"/>
<g clip-path="url(#clip1_165_389)">
<g clip-path="url(#clip2_165_389)">
<path d="M17.207 24.9596L17.76 25.2836C19.0431 26.0299 20.5538 26.2837 22.0103 25.9976C23.4667 25.7116 24.7693 24.9052 25.6747 23.7291C26.5802 22.553 27.0266 21.0876 26.9307 19.6064C26.8348 18.1252 26.2032 16.7296 25.1536 15.6801C24.1041 14.6305 22.7085 13.9988 21.2273 13.903C19.7461 13.8071 18.2807 14.2535 17.1046 15.159C15.9285 16.0644 15.1221 17.367 14.8361 18.8234C14.55 20.2799 14.8038 21.7906 15.55 23.0736L15.873 23.6266L15.373 25.4606L17.207 24.9606V24.9596ZM13.197 27.6396L14.23 23.8436C13.2967 22.2399 12.979 20.3513 13.3363 18.5304C13.6936 16.7096 14.7014 15.0811 16.1716 13.9489C17.6417 12.8168 19.4737 12.2585 21.3254 12.3782C23.1771 12.498 24.9219 13.2876 26.234 14.5997C27.546 15.9118 28.3357 17.6566 28.4555 19.5083C28.5752 21.36 28.0169 23.1919 26.8848 24.6621C25.7526 26.1323 24.1241 27.1401 22.3033 27.4974C20.4824 27.8547 18.5938 27.537 16.99 26.6036L13.197 27.6396ZM18.077 16.4156C18.1792 16.4082 18.2818 16.4071 18.384 16.4126L18.508 16.4246C18.629 16.4386 18.763 16.5126 18.808 16.6146C19.036 17.1316 19.258 17.6516 19.471 18.1736C19.519 18.2896 19.491 18.4386 19.401 18.5836C19.338 18.6816 19.271 18.7766 19.199 18.8676C19.113 18.9776 18.927 19.1816 18.927 19.1816C18.927 19.1816 18.852 19.2716 18.881 19.3836C18.891 19.4266 18.927 19.4886 18.959 19.5406L19.004 19.6136C19.199 19.9396 19.462 20.2706 19.783 20.5816C19.874 20.6706 19.963 20.7616 20.06 20.8466C20.4179 21.1621 20.8228 21.4199 21.26 21.6106L21.263 21.6116C21.328 21.6396 21.361 21.6556 21.456 21.6956C21.503 21.7156 21.552 21.7326 21.602 21.7456C21.6533 21.7586 21.7072 21.7561 21.757 21.7385C21.8068 21.7209 21.8503 21.6889 21.882 21.6466C22.435 20.9766 22.486 20.9336 22.49 20.9336V20.9346C22.5286 20.8989 22.5743 20.8717 22.6241 20.855C22.6739 20.8383 22.7267 20.8324 22.779 20.8376C22.8255 20.8397 22.8711 20.8498 22.914 20.8676C23.32 21.0536 23.984 21.3436 23.984 21.3436L24.428 21.5436C24.503 21.5786 24.571 21.6636 24.573 21.7456C24.576 21.7956 24.581 21.8786 24.563 22.0306C24.5411 22.223 24.493 22.4114 24.42 22.5906C24.3792 22.6753 24.3252 22.753 24.26 22.8206C24.1827 22.9016 24.098 22.9752 24.007 23.0406C23.9758 23.0643 23.9442 23.0873 23.912 23.1096C23.817 23.1696 23.719 23.2256 23.619 23.2776C23.4225 23.3821 23.2054 23.4422 22.983 23.4536C22.841 23.4606 22.7 23.4716 22.558 23.4636L22.124 23.3976C21.0381 23.1119 20.0338 22.5767 19.191 21.8346C19.018 21.6826 18.859 21.5196 18.695 21.3566C18.015 20.6806 17.502 19.9506 17.19 19.2616C17.0305 18.9235 16.9442 18.5555 16.937 18.1816C16.9343 17.7183 17.0859 17.2672 17.368 16.8996C17.424 16.8276 17.477 16.7526 17.568 16.6666C17.6338 16.598 17.7093 16.5394 17.792 16.4926C17.8805 16.4481 17.9772 16.4219 18.076 16.4156H18.077Z" fill="white"/>
</g>
</g>
</g>
</g>
<defs>
<filter id="filter0_i_165_389" x="0.833008" y="0" width="40" height="40" filterUnits="userSpaceOnUse" color-interpolation-filters="sRGB">
<feFlood flood-opacity="0" result="BackgroundImageFix"/>
<feBlend mode="normal" in="SourceGraphic" in2="BackgroundImageFix" result="shape"/>
<feColorMatrix in="SourceAlpha" type="matrix" values="0 0 0 0 0 0 0 0 0 0 0 0 0 0 0 0 0 0 127 0" result="hardAlpha"/>
<feMorphology radius="0.82" operator="erode" in="SourceAlpha" result="effect1_innerShadow_165_389"/>
<feOffset/>
<feGaussianBlur stdDeviation="4"/>
<feComposite in2="hardAlpha" operator="arithmetic" k2="-1" k3="1"/>
<feColorMatrix type="matrix" values="0 0 0 0 1 0 0 0 0 1 0 0 0 0 1 0 0 0 0.12 0"/>
<feBlend mode="normal" in2="shape" result="effect1_innerShadow_165_389"/>
</filter>
<radialGradient id="paint0_radial_165_389" cx="0" cy="0" r="1" gradientUnits="userSpaceOnUse" gradientTransform="translate(20.833 40) scale(40)">
<stop stop-color="white" stop-opacity="0.04"/>
<stop offset="1" stop-color="white" stop-opacity="0"/>
</radialGradient>
<clipPath id="clip0_165_389">
<rect x="0.833008" width="40" height="40" rx="8" fill="white"/>
</clipPath>
<clipPath id="clip1_165_389">
<rect width="24" height="24" fill="white" transform="translate(8.83301 8)"/>
</clipPath>
<clipPath id="clip2_165_389">
<rect width="24" height="24" fill="white" transform="translate(8.83301 8)"/>
</clipPath>
</defs>
</svg>
